<?xml version="1.0" encoding="utf-8"?>
<!-- Generator: Adobe Illustrator 24.0.1, SVG Export Plug-In . SVG Version: 6.00 Build 0)  -->
<svg version="1.1" id="Layer_1" xmlns="http://www.w3.org/2000/svg" xmlns:xlink="http://www.w3.org/1999/xlink" x="0px" y="0px"
	 viewBox="0 0 900 900" style="enable-background:new 0 0 900 900;" xml:space="preserve">
<style type="text/css">
	.st0{fill:#EE972A;}
	.st1{fill:#FFC94B;}
</style>
<path class="st0" d="M127.97,471.11c0.01-185.23,150.63-336.44,336.16-336.16c188.76,0.28,336.9,153.25,336.13,338.16
	c-0.77,184.46-150.71,333.79-336.3,334.25C279.25,807.82,127.97,656.43,127.97,471.11z M688.37,469.9
	c0.35-11.7-1.08-24.21-3.17-36.65c-4.26-25.38-12.97-49.18-25.28-71.74c-2.13-3.91-3.51-3.88-6.47-0.76
	c-7.1,7.51-14.55,14.69-21.86,22c-92.63,92.51-185.25,185.04-277.99,277.45c-3.45,3.44-2.28,4.5,1.1,6.34
	c53.21,28.87,109.17,36.56,167.77,20.92C620.81,661.22,688.74,572.24,688.37,469.9z M576.99,279.31c-0.57-2.38-1.73-2.63-2.6-3.12
	c-43.73-24.26-90.36-33.5-140.01-26.94c-47,6.21-88.28,25.23-122.58,57.79c-53.28,50.6-76.71,113.05-70.48,186.42
	c2.6,30.57,12.04,59.06,26.57,85.96c2.81,5.21,2.89,5.17,7.2,0.86c99.39-99.42,198.78-198.84,298.19-298.24
	C574.51,280.83,576.09,279.97,576.99,279.31z"/>
<path class="st1" d="M105.73,471.83c0.01-185.23,150.63-336.44,336.16-336.16c188.76,0.28,336.9,153.25,336.13,338.16
	c-0.77,184.46-150.71,333.79-336.3,334.25C257,808.54,105.72,657.14,105.73,471.83z M666.12,470.62c0.35-11.7-1.08-24.21-3.17-36.65
	c-4.26-25.38-12.97-49.18-25.28-71.74c-2.13-3.91-3.51-3.88-6.47-0.76c-7.1,7.51-14.55,14.69-21.86,22
	C516.7,475.97,424.09,568.5,331.35,660.91c-3.45,3.44-2.28,4.5,1.1,6.34c53.21,28.87,109.17,36.56,167.77,20.92
	C598.56,661.94,666.49,572.95,666.12,470.62z M554.74,280.03c-0.57-2.38-1.73-2.63-2.6-3.12c-43.73-24.26-90.36-33.5-140.01-26.94
	c-47,6.21-88.28,25.23-122.58,57.79c-53.28,50.6-76.71,113.05-70.48,186.42c2.6,30.57,12.04,59.06,26.57,85.96
	c2.81,5.21,2.89,5.17,7.2,0.86c99.39-99.42,198.78-198.84,298.19-298.24C552.26,281.55,553.84,280.68,554.74,280.03z"/>
</svg>
