<?xml version="1.0" encoding="utf-8"?>
<!-- Generator: Adobe Illustrator 24.0.1, SVG Export Plug-In . SVG Version: 6.00 Build 0)  -->
<svg version="1.1" id="Layer_1" xmlns="http://www.w3.org/2000/svg" xmlns:xlink="http://www.w3.org/1999/xlink" x="0px" y="0px"
	 viewBox="0 0 900 900" style="enable-background:new 0 0 900 900;" xml:space="preserve">
<style type="text/css">
	.st0{fill:#EE972A;}
	.st1{fill:#FFC94B;}
	.st2{fill:#FFC94B;stroke:#231F20;stroke-width:2;stroke-miterlimit:10;}
</style>
<path class="st0" d="M649.15,165.66h-398.3c-21.17,0-38.33,17.16-38.33,38.33v573.15c0,21.17,17.16,38.33,38.33,38.33h398.3
	c21.17,0,38.33-17.16,38.33-38.33V204C687.48,182.83,670.32,165.66,649.15,165.66z M430.04,739.59c-24.95,0-42.05-19.24-42.05-44.19
	c0-26.35,17.82-44.89,42.77-44.89c24.93,0,42.05,18.54,42.05,44.89C472.81,720.35,456.41,739.59,430.04,739.59z M499.18,472.32
	c-31.37,37.08-42.77,68.42-40.62,104.78l0.7,18.54h-55.6l-1.42-18.54c-4.27-38.48,8.56-80.55,44.19-123.29
	c32.06-37.78,49.88-65.58,49.88-97.64c0-36.36-22.81-60.59-67.7-61.31c-25.65,0-54.17,8.56-71.99,22.11l-17.09-44.92
	c23.5-17.09,64.13-28.49,101.91-28.49c81.97,0,119.03,50.6,119.03,104.75C560.47,396.79,533.39,431.69,499.18,472.32z"/>
<path class="st1" d="M636.43,160.66h-398.3c-21.17,0-38.33,17.16-38.33,38.33v573.15c0,21.17,17.16,38.33,38.33,38.33h398.3
	c21.17,0,38.33-17.16,38.33-38.33V199C674.76,177.83,657.6,160.66,636.43,160.66z M417.31,734.59c-24.95,0-42.05-19.24-42.05-44.19
	c0-26.35,17.82-44.89,42.77-44.89c24.93,0,42.05,18.54,42.05,44.89C460.09,715.35,443.69,734.59,417.31,734.59z M486.46,467.32
	c-31.37,37.08-42.77,68.42-40.62,104.78l0.7,18.54h-55.6l-1.42-18.54c-4.27-38.48,8.56-80.55,44.19-123.29
	c32.06-37.78,49.88-65.58,49.88-97.64c0-36.36-22.81-60.59-67.7-61.31c-25.65,0-54.17,8.56-71.99,22.11l-17.09-44.92
	c23.5-17.09,64.13-28.49,101.91-28.49c81.97,0,119.03,50.6,119.03,104.75C547.74,391.79,520.67,426.69,486.46,467.32z"/>
<path class="st2" d="M2729.37,189.68c-41.32-77-110.67-125.32-181-126h-1.68c-49.18-0.05-118.76,22.07-183.18,121.3
	c-64.42-99.24-134-121.35-183.19-121.35h-1.68c-70.32,0.72-139.67,49-181,126c-41.33,77-60.13,198.23,10.73,307.47
	c64.94,100,178.45,188.76,347,271.26l8.1,4l8.1-4c168.59-82.5,282.1-171.23,347-271.26
	C2789.51,387.86,2770.67,266.67,2729.37,189.68z M2518.74,452.57c0,9.31-7.55,16.86-16.86,16.86h-87.79v87.8
	c0,9.31-7.54,16.85-16.85,16.85c0,0-0.01,0-0.01,0h-67.44c-9.31,0.01-16.85-7.53-16.86-16.84c0,0,0-0.01,0-0.01v-87.8h-87.79
	c-9.31,0-16.86-7.55-16.86-16.86v-67.43c0-9.31,7.55-16.86,16.86-16.86h87.79v-87.79c0-9.31,7.55-16.86,16.86-16.86l0,0h67.44
	c9.31,0,16.86,7.55,16.86,16.86v73.7l0.16,14.09h87.63c9.31,0,16.86,7.55,16.86,16.86l0,0V452.57z"/>
<path class="st0" d="M2418.17,824.32c-49.71-31.54-90.22-75.47-128.19-120.45c-41.65-49.33-81.27-101-110.26-158.68
	c-4.44-8.84-8.67-17.9-12.62-27.13c-22.32-52.12-35.83-109.74-29.66-166c9.52-86.89,64.92-169,134.54-220.08c1-0.7,2-1.37,2.91-2.07
	c-8.86-1.47-17.83-2.21-26.81-2.22h-1.68c-70.32,0.72-139.67,49-181,126c-41.33,77-60.13,198.18,10.73,307.42
	c64.94,100,178.45,188.76,347,271.26l8.1,4l4-2C2429.44,831.21,2423.75,827.86,2418.17,824.32z"/>
</svg>
