<svg id="Layer_1" data-name="Layer 1" xmlns="http://www.w3.org/2000/svg" xmlns:xlink="http://www.w3.org/1999/xlink" viewBox="0 0 900 900"><defs><style>.cls-1{fill:#ffc94a;stroke:#231f20;stroke-miterlimit:10;stroke-width:2px;}.cls-2{fill:url(#linear-gradient);}.cls-3{fill:#ed972d;}</style><linearGradient id="linear-gradient" x1="105.45" y1="256.01" x2="464.22" y2="614.78" gradientUnits="userSpaceOnUse"><stop offset="0" stop-color="#12afb5"/><stop offset="0.7" stop-color="#42c2ca"/><stop offset="0.82" stop-color="#86ccd3"/></linearGradient></defs><title>powerup</title><path class="cls-1" d="M817.86,247.31c-41.32-77-110.67-125.32-181-126h-1.68C586,121.26,516.42,143.38,452,242.61c-64.42-99.24-134-121.35-183.19-121.35h-1.68c-70.32.72-139.67,49-181,126S26,445.49,96.86,554.73c64.94,100,178.45,188.76,347,271.26l8.1,4,8.1-4c168.59-82.5,282.1-171.23,347-271.26C878,445.49,859.16,324.3,817.86,247.31ZM607.23,510.19a16.86,16.86,0,0,1-16.86,16.86H502.58v87.8a16.85,16.85,0,0,1-16.86,16.85H418.28a16.85,16.85,0,0,1-16.86-16.85v-87.8H313.63a16.86,16.86,0,0,1-16.86-16.86V442.76a16.86,16.86,0,0,1,16.86-16.86h87.79V338.11a16.86,16.86,0,0,1,16.86-16.86h67.44a16.86,16.86,0,0,1,16.86,16.86v73.7l.16,14.09h87.63a16.86,16.86,0,0,1,16.86,16.86Z"/><path class="cls-2" d="M438.9,817.94c-49.71-31.54-90.22-75.47-128.19-120.45-41.65-49.33-81.27-101-110.26-158.68-4.44-8.84-8.67-17.9-12.62-27.13-22.32-52.12-35.83-109.74-29.66-166,9.52-86.89,64.92-169,134.54-220.08,1-.7,2-1.37,2.91-2.07a165.64,165.64,0,0,0-26.81-2.22h-1.68c-70.32.72-139.67,49-181,126S26,445.49,96.86,554.73c64.94,100,178.45,188.76,347,271.26l8.1,4,4-2Q447.28,823.26,438.9,817.94Z"/><path class="cls-3" d="M438.9,817.94c-49.71-31.54-90.22-75.47-128.19-120.45-41.65-49.33-81.27-101-110.26-158.68-4.44-8.84-8.67-17.9-12.62-27.13-22.32-52.12-35.83-109.74-29.66-166,9.52-86.89,64.92-169,134.54-220.08,1-.7,2-1.37,2.91-2.07a165.64,165.64,0,0,0-26.81-2.22h-1.68c-70.32.72-139.67,49-181,126S26,445.49,96.86,554.73c64.94,100,178.45,188.76,347,271.26l8.1,4,4-2Q447.28,823.26,438.9,817.94Z"/></svg>