<?xml version="1.0" encoding="utf-8"?>
<!-- Generator: Adobe Illustrator 24.0.1, SVG Export Plug-In . SVG Version: 6.00 Build 0)  -->
<svg version="1.1" id="Layer_1" xmlns="http://www.w3.org/2000/svg" xmlns:xlink="http://www.w3.org/1999/xlink" x="0px" y="0px"
	 viewBox="0 0 900 900" style="enable-background:new 0 0 900 900;" xml:space="preserve">
<style type="text/css">
	.st0{fill:#FFC94A;}
	.st1{fill:#ED972D;}
	.st2{fill:#EE972A;}
	.st3{fill:#FFC94B;}
	.st4{fill:#ED962A;}
	.st5{fill:#FFC84A;}
</style>
<path class="st0" d="M355.19,406.31c-6.97-12.99-18.66-21.13-30.52-21.25h-0.28c-8.29-0.01-20.03,3.72-30.89,20.46
	c-10.86-16.74-22.6-20.47-30.89-20.47h-0.28c-11.86,0.12-23.55,8.26-30.52,21.25s-10.14,33.43,1.81,51.85
	c10.95,16.86,30.09,31.83,58.52,45.75l1.37,0.67l1.37-0.67c28.43-13.91,47.57-28.88,58.52-45.75
	C365.33,439.74,362.15,419.3,355.19,406.31z M319.66,450.65c0,1.57-1.27,2.84-2.84,2.84h-14.81v14.81c0,1.57-1.27,2.84-2.84,2.84
	c0,0,0,0,0,0H287.8c-1.57,0-2.84-1.27-2.84-2.84c0,0,0,0,0,0v-14.81h-14.81c-1.57,0-2.84-1.27-2.84-2.84v-11.37
	c0-1.57,1.27-2.84,2.84-2.84h14.81v-14.81c0-1.57,1.27-2.84,2.84-2.84l0,0h11.37c1.57,0,2.84,1.27,2.84,2.84v12.43l0.03,2.38h14.78
	c1.57,0,2.84,1.27,2.84,2.84l0,0V450.65z"/>
<path class="st1" d="M291.28,502.69c-8.38-5.32-15.22-12.73-21.62-20.31c-7.02-8.32-13.71-17.03-18.59-26.76
	c-0.75-1.49-1.46-3.02-2.13-4.58c-3.76-8.79-6.04-18.51-5-28c1.61-14.65,10.95-28.5,22.69-37.12c0.17-0.12,0.34-0.23,0.49-0.35
	c-1.49-0.25-3.01-0.37-4.52-0.37h-0.28c-11.86,0.12-23.55,8.26-30.52,21.25s-10.14,33.42,1.81,51.84
	c10.95,16.86,30.09,31.83,58.52,45.75l1.37,0.67l0.67-0.34C293.18,503.85,292.22,503.29,291.28,502.69z"/>
<g>
	<path class="st2" d="M398.72,442.84c0-33.32,27.09-60.51,60.46-60.46c33.95,0.05,60.6,27.56,60.46,60.82
		c-0.14,33.18-27.11,60.04-60.49,60.12C425.93,503.4,398.72,476.17,398.72,442.84z M499.51,442.62c0.06-2.1-0.19-4.35-0.57-6.59
		c-0.77-4.56-2.33-8.85-4.55-12.9c-0.38-0.7-0.63-0.7-1.16-0.14c-1.28,1.35-2.62,2.64-3.93,3.96c-16.66,16.64-33.32,33.28-50,49.9
		c-0.62,0.62-0.41,0.81,0.2,1.14c9.57,5.19,19.64,6.58,30.18,3.76C487.36,477.04,499.58,461.03,499.51,442.62z M479.48,408.35
		c-0.1-0.43-0.31-0.47-0.47-0.56c-7.87-4.36-16.25-6.03-25.18-4.85c-8.45,1.12-15.88,4.54-22.05,10.39
		c-9.58,9.1-13.8,20.33-12.68,33.53c0.47,5.5,2.17,10.62,4.78,15.46c0.51,0.94,0.52,0.93,1.29,0.15
		c17.88-17.88,35.75-35.76,53.63-53.64C479.04,408.62,479.32,408.46,479.48,408.35z"/>
	<path class="st3" d="M394.72,442.97c0-33.32,27.09-60.51,60.46-60.46c33.95,0.05,60.6,27.56,60.46,60.82
		c-0.14,33.18-27.11,60.04-60.49,60.12C421.93,503.53,394.72,476.3,394.72,442.97z M495.51,442.75c0.06-2.1-0.19-4.35-0.57-6.59
		c-0.77-4.56-2.33-8.85-4.55-12.9c-0.38-0.7-0.63-0.7-1.16-0.14c-1.28,1.35-2.62,2.64-3.93,3.96c-16.66,16.64-33.32,33.28-50,49.9
		c-0.62,0.62-0.41,0.81,0.2,1.14c9.57,5.19,19.64,6.58,30.18,3.76C483.36,477.17,495.58,461.16,495.51,442.75z M475.48,408.47
		c-0.1-0.43-0.31-0.47-0.47-0.56c-7.87-4.36-16.25-6.03-25.18-4.85c-8.45,1.12-15.88,4.54-22.05,10.39
		c-9.58,9.1-13.8,20.33-12.68,33.53c0.47,5.5,2.17,10.62,4.78,15.46c0.51,0.94,0.52,0.93,1.3,0.15
		c17.88-17.88,35.75-35.76,53.63-53.64C475.03,408.75,475.32,408.59,475.48,408.47z"/>
</g>
<path class="st4" d="M664.4,378.58h-76.46c-4.06,0-7.36,3.29-7.36,7.36v110.03c0,4.06,3.29,7.36,7.36,7.36h76.46
	c4.06,0,7.36-3.29,7.36-7.36V385.93C671.76,381.87,668.46,378.58,664.4,378.58z M622.34,488.75c-4.79,0-8.07-3.69-8.07-8.48
	c0-5.06,3.42-8.62,8.21-8.62c4.78,0,8.07,3.56,8.07,8.62C630.55,485.06,627.4,488.75,622.34,488.75z M635.61,437.44
	c-6.02,7.12-8.21,13.13-7.8,20.11l0.13,3.56h-10.67l-0.27-3.56c-0.82-7.39,1.64-15.46,8.48-23.67c6.16-7.25,9.58-12.59,9.58-18.74
	c0-6.98-4.38-11.63-13-11.77c-4.92,0-10.4,1.64-13.82,4.24l-3.28-8.62c4.51-3.28,12.31-5.47,19.56-5.47
	c15.74,0,22.85,9.71,22.85,20.11C647.37,422.94,642.18,429.65,635.61,437.44z"/>
<path class="st5" d="M661.96,377.62H585.5c-4.06,0-7.36,3.29-7.36,7.36V495c0,4.06,3.29,7.36,7.36,7.36h76.46
	c4.06,0,7.36-3.29,7.36-7.36V384.97C669.32,380.91,666.02,377.62,661.96,377.62z M619.89,487.79c-4.79,0-8.07-3.69-8.07-8.48
	c0-5.06,3.42-8.62,8.21-8.62c4.78,0,8.07,3.56,8.07,8.62C628.1,484.1,624.96,487.79,619.89,487.79z M633.17,436.48
	c-6.02,7.12-8.21,13.13-7.8,20.11l0.13,3.56h-10.67l-0.27-3.56c-0.82-7.39,1.64-15.46,8.48-23.67c6.16-7.25,9.58-12.59,9.58-18.74
	c0-6.98-4.38-11.63-13-11.77c-4.92,0-10.4,1.64-13.82,4.24l-3.28-8.62c4.51-3.28,12.31-5.47,19.56-5.47
	c15.74,0,22.85,9.71,22.85,20.11C644.93,421.99,639.74,428.69,633.17,436.48z"/>
</svg>
