<?xml version="1.0" encoding="utf-8"?>
<!-- Generator: Adobe Illustrator 24.0.1, SVG Export Plug-In . SVG Version: 6.00 Build 0)  -->
<svg version="1.1" id="Layer_1" xmlns="http://www.w3.org/2000/svg" xmlns:xlink="http://www.w3.org/1999/xlink" x="0px" y="0px"
	 viewBox="0 0 900 900" style="enable-background:new 0 0 900 900;" xml:space="preserve">
<style type="text/css">
	.st0{fill:#FFC94A;}
	.st1{fill:#ED972D;}
	.st2{fill:#EE972A;}
	.st3{fill:#FFC94B;}
	.st4{fill:#ED962A;}
	.st5{fill:#FFC84A;}
</style>
<path class="st0" d="M333.06,406.7c-10.95-20.41-29.34-33.22-47.98-33.4h-0.45c-13.04-0.01-31.48,5.85-48.56,32.15
	c-17.08-26.31-35.52-32.17-48.56-32.17h-0.45c-18.64,0.19-37.02,12.99-47.98,33.4s-15.94,52.55,2.84,81.5
	c17.21,26.51,47.3,50.04,91.98,71.9l2.15,1.06l2.15-1.06c44.69-21.87,74.78-45.39,91.98-71.9C349,459.24,344.01,427.11,333.06,406.7
	z M277.23,476.39c0,2.47-2,4.47-4.47,4.47h-23.27v23.27c0,2.47-2,4.47-4.47,4.47c0,0,0,0,0,0h-17.88c-2.47,0-4.47-2-4.47-4.46
	c0,0,0,0,0,0v-23.27H199.4c-2.47,0-4.47-2-4.47-4.47v-17.87c0-2.47,2-4.47,4.47-4.47h23.27v-23.27c0-2.47,2-4.47,4.47-4.47l0,0
	h17.88c2.47,0,4.47,2,4.47,4.47v19.54l0.04,3.73h23.23c2.47,0,4.47,2,4.47,4.47l0,0V476.39z"/>
<path class="st1" d="M232.61,558.18c-13.18-8.36-23.92-20.01-33.98-31.93c-11.04-13.08-21.54-26.77-29.23-42.06
	c-1.18-2.34-2.3-4.74-3.35-7.19c-5.92-13.82-9.5-29.09-7.86-44c2.52-23.03,17.21-44.8,35.66-58.34c0.27-0.19,0.53-0.36,0.77-0.55
	c-2.35-0.39-4.73-0.59-7.11-0.59h-0.45c-18.64,0.19-37.02,12.99-47.98,33.4s-15.94,52.53,2.84,81.49
	c17.21,26.51,47.3,50.04,91.98,71.9l2.15,1.06l1.06-0.53C235.59,560.01,234.09,559.12,232.61,558.18z"/>
<g>
	<path class="st2" d="M401.49,464.12c0-52.37,42.58-95.11,95.03-95.03c53.36,0.08,95.24,43.32,95.03,95.6
		c-0.22,52.15-42.61,94.36-95.07,94.49C444.25,559.31,401.49,516.51,401.49,464.12z M559.91,463.78c0.1-3.31-0.31-6.84-0.9-10.36
		c-1.2-7.18-3.67-13.9-7.15-20.28c-0.6-1.11-0.99-1.1-1.83-0.21c-2.01,2.12-4.11,4.15-6.18,6.22
		c-26.19,26.15-52.37,52.31-78.59,78.44c-0.98,0.97-0.64,1.27,0.31,1.79c15.04,8.16,30.86,10.34,47.43,5.91
		C540.81,517.86,560.02,492.71,559.91,463.78z M528.43,409.9c-0.16-0.67-0.49-0.74-0.74-0.88c-12.36-6.86-25.55-9.47-39.58-7.62
		c-13.29,1.76-24.96,7.13-34.65,16.34c-15.06,14.3-21.69,31.96-19.93,52.7c0.74,8.64,3.4,16.7,7.51,24.3
		c0.79,1.47,0.82,1.46,2.04,0.24c28.1-28.11,56.2-56.21,84.3-84.31C527.73,410.33,528.17,410.08,528.43,409.9z"/>
	<path class="st3" d="M395.2,464.32c0-52.37,42.58-95.11,95.03-95.03c53.36,0.08,95.24,43.32,95.03,95.6
		c-0.22,52.15-42.61,94.36-95.07,94.49C437.96,559.51,395.2,516.71,395.2,464.32z M553.62,463.98c0.1-3.31-0.31-6.84-0.9-10.36
		c-1.2-7.18-3.67-13.9-7.15-20.28c-0.6-1.11-0.99-1.1-1.83-0.21c-2.01,2.12-4.11,4.15-6.18,6.22
		c-26.19,26.15-52.37,52.31-78.59,78.43c-0.98,0.97-0.64,1.27,0.31,1.79c15.04,8.16,30.86,10.34,47.43,5.91
		C534.52,518.07,553.73,492.91,553.62,463.98z M522.14,410.1c-0.16-0.67-0.49-0.74-0.74-0.88c-12.36-6.86-25.55-9.47-39.58-7.62
		c-13.29,1.76-24.96,7.13-34.65,16.34c-15.06,14.3-21.69,31.96-19.93,52.7c0.74,8.64,3.4,16.7,7.51,24.3
		c0.79,1.47,0.82,1.46,2.04,0.24c28.1-28.11,56.2-56.21,84.3-84.31C521.44,410.53,521.88,410.28,522.14,410.1z"/>
</g>
<path class="st4" d="M819.08,363.1H698.9c-6.39,0-11.57,5.18-11.57,11.57v172.94c0,6.39,5.18,11.57,11.57,11.57h120.18
	c6.39,0,11.57-5.18,11.57-11.57V374.67C830.64,368.28,825.47,363.1,819.08,363.1z M752.96,536.28c-7.53,0-12.69-5.8-12.69-13.33
	c0-7.95,5.38-13.54,12.91-13.54c7.52,0,12.69,5.59,12.69,13.54C765.87,530.48,760.92,536.28,752.96,536.28z M773.83,455.63
	c-9.46,11.19-12.91,20.65-12.26,31.62l0.21,5.59H745l-0.43-5.59c-1.29-11.61,2.58-24.31,13.33-37.2
	c9.67-11.4,15.05-19.79,15.05-29.46c0-10.97-6.88-18.28-20.43-18.5c-7.74,0-16.35,2.58-21.72,6.67l-5.16-13.55
	c7.09-5.16,19.35-8.6,30.75-8.6c24.73,0,35.91,15.27,35.91,31.61C792.32,432.84,784.15,443.38,773.83,455.63z"/>
<path class="st5" d="M815.24,361.6H695.06c-6.39,0-11.57,5.18-11.57,11.57V546.1c0,6.39,5.18,11.57,11.57,11.57h120.18
	c6.39,0,11.57-5.18,11.57-11.57V373.16C826.81,366.77,821.63,361.6,815.24,361.6z M749.12,534.77c-7.53,0-12.69-5.8-12.69-13.33
	c0-7.95,5.38-13.54,12.91-13.54c7.52,0,12.69,5.59,12.69,13.54C762.03,528.97,757.08,534.77,749.12,534.77z M769.99,454.13
	c-9.46,11.19-12.91,20.65-12.26,31.62l0.21,5.59h-16.78l-0.43-5.59c-1.29-11.61,2.58-24.31,13.33-37.2
	c9.67-11.4,15.05-19.79,15.05-29.46c0-10.97-6.88-18.28-20.43-18.5c-7.74,0-16.35,2.58-21.72,6.67l-5.16-13.55
	c7.09-5.16,19.35-8.6,30.75-8.6c24.73,0,35.91,15.27,35.91,31.61C788.48,431.34,780.31,441.87,769.99,454.13z"/>
</svg>
