<?xml version="1.0" encoding="utf-8"?>
<!-- Generator: Adobe Illustrator 24.0.1, SVG Export Plug-In . SVG Version: 6.00 Build 0)  -->
<svg version="1.1" id="Layer_1" xmlns="http://www.w3.org/2000/svg" xmlns:xlink="http://www.w3.org/1999/xlink" x="0px" y="0px"
	 viewBox="0 0 900 900" style="enable-background:new 0 0 900 900;" xml:space="preserve">
<style type="text/css">
	.st0{fill:#FFFFFF;stroke:#000000;stroke-miterlimit:10;}
	.st1{fill:#263A7E;stroke:#000000;stroke-miterlimit:10;}
	.st2{fill:#F6D511;stroke:#000000;stroke-miterlimit:10;}
	.st3{fill:#263A7E;}
	.st4{fill:#33302A;}
	.st5{fill:#2F2E2E;}
	.st6{fill:#2F2D2E;}
	.st7{fill:#343434;}
	.st8{fill:#232323;}
	.st9{fill:#EFEEEE;}
	.st10{fill:#EAE8E8;}
	.st11{fill:#D5D3D3;}
	.st12{fill:#E0DEDE;}
	.st13{fill:#FEFEFE;}
	.st14{fill:#F6D511;}
	.st15{fill:#E7E5E5;}
	.st16{fill:#292423;}
	.st17{fill:#302E2F;}
	.st18{fill:#2F2F2F;}
	.st19{fill:#263A7E;stroke:#1B0C0C;stroke-miterlimit:10;}
	.st20{fill:#33302A;stroke:#1B0C0C;stroke-miterlimit:10;}
	.st21{fill:#2F2E2E;stroke:#1B0C0C;stroke-miterlimit:10;}
	.st22{fill:#302E2F;stroke:#1B0C0C;stroke-miterlimit:10;}
	.st23{fill:#2F2D2E;stroke:#1B0C0C;stroke-miterlimit:10;}
	.st24{fill:#343434;stroke:#1B0C0C;stroke-miterlimit:10;}
	.st25{fill:#232323;stroke:#1B0C0C;stroke-miterlimit:10;}
	.st26{fill:#2F2F2F;stroke:#1B0C0C;stroke-miterlimit:10;}
	.st27{fill:#EFEEEE;stroke:#1B0C0C;stroke-miterlimit:10;}
	.st28{fill:#EAE8E8;stroke:#1B0C0C;stroke-miterlimit:10;}
	.st29{fill:#D5D3D3;stroke:#1B0C0C;stroke-miterlimit:10;}
	.st30{fill:#E0DEDE;stroke:#1B0C0C;stroke-miterlimit:10;}
	.st31{fill:#FEFEFE;stroke:#1B0C0C;stroke-miterlimit:10;}
	.st32{fill:#F6D511;stroke:#1B0C0C;stroke-miterlimit:10;}
	.st33{fill:#E7E5E5;stroke:#1B0C0C;stroke-miterlimit:10;}
	.st34{fill:#292423;stroke:#1B0C0C;stroke-miterlimit:10;}
	.st35{fill:#FFFFFF;}
</style>
<path class="st0" d="M811.63,900H88.37C39.57,900,0,860.43,0,811.63V88.37C0,39.57,39.57,0,88.37,0h723.26
	C860.43,0,900,39.57,900,88.37v723.26C900,860.43,860.43,900,811.63,900z"/>
<rect x="920" class="st1" width="900" height="900"/>
<g>
	<path class="st1" d="M-2437.28,240.24c0,0-201.37,368.73-196.47,459.45c0.37,6.82,1.5,10.81,3.36,12.34
		c10.96,8.95,47.29-67.12,103.54-152.55c10.77-16.36,22.27-33.07,34.47-49.59c57.37-77.72,130.07-151.27,214.08-165.3
		C-2233.78,337.21-2427.2,221.54-2437.28,240.24z"/>
	<path class="st1" d="M-2526.85,683.69c-51.87,2.42-103.53,28.33-103.53,28.33l138.01-202.14
		C-2492.38,509.89-2484.64,681.72-2526.85,683.69z"/>
</g>
<g>
	<path class="st2" d="M-659.23-745.84c0,0-47.65,357.48-15.76,428.65c2.4,5.35,4.53,8.2,6.5,8.85
		c11.54,3.79,17.2-68.35,35.92-154.13c3.59-16.43,7.65-33.36,12.33-50.35c22.01-79.95,57.57-161.28,120.55-198.43
		C-466.31-730.89-656.93-763.92-659.23-745.84z"/>
	<path class="st2" d="M-594.29-362.96c-40.81,17.93-74.21,54.61-74.21,54.61l48.25-204.48
		C-620.25-512.83-561.08-377.55-594.29-362.96z"/>
</g>
<g>
	<path class="st2" d="M-340.68-853.91c0,0-87.16,349.95-142.99,404.4c-4.2,4.1-7.23,5.96-9.3,5.84
		c-12.13-0.72,9.14-69.88,23.28-156.54c2.71-16.6,5.15-33.83,7.05-51.36c8.94-82.44,5.79-171.15-39.12-228.85
		C-525.58-910.96-336.18-871.58-340.68-853.91z"/>
	<path class="st2" d="M-541.9-521.75c31.36,31.68,48.92,78.08,48.92,78.08l30.34-207.89C-462.63-651.57-567.41-547.53-541.9-521.75z
		"/>
</g>
<path class="st3" d="M-1250.44,245.14h-311.48c-37.77,0-68.39,30.62-68.39,68.39V625c0,37.77,30.62,68.39,68.39,68.39h311.48
	c37.77,0,68.39-30.62,68.39-68.39V313.52C-1182.05,275.75-1212.67,245.14-1250.44,245.14z M-1274.42,430.14
	c-49.38-3.65-100.57,27.87-143.69,63.85c0,0-19.31,98.11-43.42,93.41c-21.83-4.26-45.33-1.3-56.21,0.55
	c-3.06,2.01-5.16,2.52-6.17,1.18c-0.84-1.12-0.93-3.53-0.2-7.43c9.74-51.91,174.28-232.41,174.28-232.41
	C-1341.56,340.12-1248.27,432.1-1274.42,430.14z"/>
<rect x="-4115.58" y="-341.94" style="fill:none;" width="173.62" height="230.81"/>
<text transform="matrix(1 0 0 1 -4115.5786 -324.4234)" style="font-family:'Bangers-Regular'; font-size:24px;">FLIP &amp; BOOM</text>
<path class="st1" d="M315.28,1469.38c2.04-7.08,4.05-15.13,6.03-24.13c1.98-9,3.9-18.21,5.76-27.64c1.86-9.42,3.63-18.33,5.31-26.74
	c1.56-7.69,3.06-15.49,4.51-23.41c1.44-7.93,2.88-15.91,4.32-23.95l28.09-4.5c-1.56,8.04-3.12,15.99-4.68,23.86
	c-1.56,7.86-3.12,15.69-4.68,23.5c-1.68,8.4-3.42,17.28-5.22,26.65c-1.8,9.36-3.55,18.58-5.22,27.64c-1.69,9.06-3.24,17.5-4.68,25.3
	c-2.16,0-4.87,0.15-8.1,0.45s-6.48,0.66-9.72,1.08c-3.24,0.42-5.97,0.81-8.19,1.16C316.56,1469.02,315.39,1469.26,315.28,1469.38z"
	/>
<path class="st1" d="M548.96,1543.51c-6.02,0-10.94-2.33-14.77-6.98c-3.83-4.65-5.74-11.67-5.74-21.06c0-5.19,0.63-10.66,1.91-16.41
	c1.27-5.74,3.06-11.4,5.33-16.96c2.28-5.56,4.92-10.71,7.94-15.45c4.83-7.66,10.4-13.9,16.68-18.74c6.29-4.83,12.9-7.25,19.83-7.25
	c5.47,0,9.68,1.39,12.65,4.17c2.96,2.78,5.04,6.34,6.22,10.67c1.19,4.33,1.78,8.82,1.78,13.47c0,10.85-1.67,20.95-4.99,30.29
	c-3.33,9.35-7.64,17.26-12.93,23.73c-5.29,6.66-10.92,11.74-16.89,15.25C560.02,1541.75,554.34,1543.51,548.96,1543.51z
	 M556.34,1520.94c4.11,0,7.73-1.37,10.87-4.11c3.14-2.73,5.82-6.22,8-10.46c2.19-4.24,3.83-8.68,4.92-13.33
	c1.09-4.65,1.64-8.84,1.64-12.58c0-1.46-0.13-3.03-0.41-4.72c-0.27-1.69-0.87-3.17-1.78-4.45c-0.91-1.27-2.33-1.91-4.24-1.91
	c-4.19,0-7.97,1.53-11.35,4.59c-3.38,3.06-6.2,6.91-8.48,11.55c-2.28,4.74-3.97,9.39-5.06,13.95c-1.1,4.56-1.64,8.71-1.64,12.44
	c0,1.92,0.68,3.9,2.05,5.95C552.24,1519.91,554.07,1520.94,556.34,1520.94z"/>
<g>
	<path class="st1" d="M-701.56-198.23c0.69-2.38,1.36-5.09,2.01-8.13c0.64-3.04,1.25-6.15,1.82-9.32c0.57-3.17,1.1-6.11,1.59-8.83
		s0.89-4.97,1.19-6.75c0.54-3.32,1.08-6.67,1.59-10.06c0.52-3.39,1.03-6.84,1.52-10.35l24.86-1.26l-2.15,9.13h-11.65l-2.3,13.21
		c0.79-0.05,1.55-0.08,2.26-0.08c0.72,0,1.42,0,2.12,0h3.49c0.59,0,1.11,0,1.56,0c0.44,0,0.84-0.02,1.19-0.07
		c-0.05,0.69-0.12,1.37-0.22,2.04c-0.1,0.67-0.2,1.35-0.3,2.04l-0.67,4.01c-1.04,0-2.54-0.04-4.49-0.11
		c-1.95-0.07-4.02-0.13-6.2-0.18l-3.42,21.9c-0.84,0.15-1.67,0.3-2.49,0.44c-0.82,0.15-1.65,0.32-2.49,0.52
		c-1.39,0.25-2.9,0.55-4.53,0.89C-698.89-198.85-700.32-198.53-701.56-198.23z"/>
	<path class="st1" d="M-675.65-198.16c0.54-3.91,1.12-7.84,1.74-11.8s1.26-7.78,1.93-11.47c0.67-3.69,1.3-7.02,1.89-9.98
		c0.64-3.21,1.29-6.48,1.93-9.8c0.64-3.31,1.31-6.65,2.01-10.02l12.99-1.71l-3.86,16.77c-0.69,2.92-1.4,6.05-2.11,9.39
		c-0.72,3.34-1.37,6.57-1.97,9.69c-0.59,3.12-1.07,5.89-1.41,8.31c1.24-0.1,2.56-0.16,3.97-0.18c1.41-0.02,2.66-0.04,3.75-0.04
		c0.05,1.14,0.15,2.34,0.3,3.6c0.15,1.26,0.31,2.35,0.48,3.27c0.17,0.92,0.26,1.42,0.26,1.52c-0.2,0-0.38,0-0.56,0
		c-0.18,0-0.36-0.02-0.56-0.07h-1.19c-1.93,0-4.07,0.09-6.42,0.26s-4.68,0.44-6.98,0.82C-671.76-199.24-673.82-198.75-675.65-198.16
		z"/>
	<path class="st1" d="M-654.57-198.38c0.84-2.92,1.67-6.24,2.49-9.95c0.82-3.71,1.61-7.51,2.37-11.39c0.77-3.88,1.5-7.56,2.19-11.02
		c0.64-3.17,1.26-6.38,1.86-9.65c0.59-3.27,1.19-6.56,1.78-9.87l11.58-1.85c-0.64,3.32-1.29,6.59-1.93,9.83
		c-0.64,3.24-1.29,6.47-1.93,9.69c-0.69,3.46-1.41,7.12-2.15,10.98c-0.74,3.86-1.46,7.66-2.15,11.4c-0.69,3.74-1.33,7.21-1.93,10.43
		c-0.89,0-2.01,0.06-3.34,0.18c-1.33,0.12-2.67,0.27-4.01,0.45c-1.33,0.17-2.46,0.33-3.38,0.48
		C-654.05-198.53-654.53-198.43-654.57-198.38z"/>
	<path class="st1" d="M-639.51-198.23c1.49-6.68,2.9-13.21,4.23-19.59c0.54-2.57,1.1-5.33,1.67-8.28c0.57-2.94,1.15-5.93,1.75-8.95
		c0.59-3.02,1.14-5.87,1.63-8.57s0.89-5.06,1.19-7.09c1.98-0.59,4.12-1.14,6.42-1.63c2.3-0.5,4.37-0.74,6.2-0.74
		c2.97,0,5.32,0.63,7.05,1.89c1.73,1.26,2.97,2.96,3.71,5.08c0.74,2.13,1.11,4.45,1.11,6.98c0,2.77-0.51,5.43-1.52,7.98
		c-1.01,2.55-2.38,4.84-4.08,6.87s-3.66,3.64-5.86,4.82c-2.2,1.19-4.49,1.78-6.87,1.78h-0.82c-0.4,1.68-0.77,3.51-1.11,5.49
		c-0.34,1.98-0.64,3.81-0.89,5.49c-0.2,0.99-0.37,1.98-0.52,2.97c-0.15,0.99-0.3,1.98-0.44,2.97L-639.51-198.23z M-622.22-225.47
		c1.14-0.3,2.28-1.05,3.42-2.26c1.14-1.21,2.08-2.76,2.82-4.64c0.74-1.88,1.11-3.94,1.11-6.16c0-1.83-0.41-3.22-1.23-4.16
		c-0.82-0.94-1.72-1.41-2.71-1.41c-0.55,3.26-1.09,6.36-1.63,9.28S-621.57-228.79-622.22-225.47z"/>
	<path class="st1" d="M-580.43-197.34c-3.36,0-6.14-0.57-8.31-1.71c-2.18-1.14-3.8-2.68-4.86-4.64c-1.07-1.95-1.59-4.14-1.59-6.57
		c0-2.48,0.53-4.95,1.59-7.42c1.06-2.47,2.56-4.68,4.49-6.61s4.2-3.24,6.83-3.94c-1.63-0.84-3.04-1.97-4.23-3.38
		c-1.19-1.41-1.78-3.03-1.78-4.86c0-3.36,0.93-6.31,2.78-8.83c1.85-2.52,4.29-4.5,7.31-5.94c3.02-1.43,6.28-2.15,9.8-2.15
		c2.33,0,4.47,0.53,6.42,1.59c1.95,1.07,3.48,2.54,4.57,4.42l-6.09,6.83c-0.64-0.59-1.22-1.1-1.74-1.52c-0.52-0.42-1.2-0.76-2.04-1
		c-0.84-0.25-2.08-0.37-3.71-0.37c-1.98,0-3.45,0.64-4.42,1.93c-0.96,1.29-1.45,2.8-1.45,4.53c0,1.93,0.54,3.55,1.63,4.86
		c1.09,1.31,2.62,1.97,4.6,1.97h0.74c0.15,0,0.3-0.01,0.44-0.04c0.15-0.02,0.3-0.06,0.45-0.11c0-0.44,0.02-0.77,0.07-0.96
		c0.05-0.15,0.08-0.3,0.08-0.45c0-0.15,0.02-0.32,0.08-0.52c0-0.44,0.02-0.77,0.07-0.96c0.99,0,1.94-0.01,2.86-0.04
		c0.92-0.02,1.79-0.06,2.64-0.11c0.84-0.05,1.71-0.1,2.6-0.15c0.89-0.05,1.81-0.1,2.75-0.15c-0.1,0.3-0.15,0.67-0.15,1.11v1.85
		c0.54,0,1.29-0.1,2.23-0.3c0.94-0.2,1.98-0.42,3.12-0.67l0.82,7.57c-1.33,0.2-2.55,0.38-3.64,0.56c-1.09,0.17-1.83,0.26-2.23,0.26
		c0,4.9-0.74,9.3-2.23,13.21c-1.48,3.91-3.88,7-7.2,9.28C-570.46-198.48-574.89-197.34-580.43-197.34z M-577.98-206.7
		c1.78,0,3.2-0.59,4.27-1.78c1.06-1.19,1.88-2.67,2.45-4.45c0.57-1.78,0.98-3.59,1.23-5.42c0.25-1.83,0.42-3.36,0.52-4.6
		c-4.85,0.35-8.37,1.57-10.58,3.68c-2.2,2.1-3.3,4.52-3.3,7.24c0,1.58,0.48,2.87,1.45,3.86
		C-580.99-207.19-579.66-206.7-577.98-206.7z"/>
	<path class="st1" d="M-537.46-198.01c-1.83,0-3.54-0.15-5.12-0.45c2.38-8.66,4.27-17.38,5.68-26.16
		c1.41-8.78,2.76-17.63,4.05-26.54c2.57-0.54,5.24-1.03,8.02-1.45c2.77-0.42,5.64-0.63,8.61-0.63c1.63,0,3.36,0.28,5.19,0.85
		c1.83,0.57,3.38,1.58,4.64,3.04c1.26,1.46,1.89,3.53,1.89,6.2c0,2.48-0.52,4.75-1.56,6.83c-1.04,2.08-2.35,3.86-3.94,5.35
		c-1.58,1.48-3.22,2.55-4.9,3.19c0.69,0.34,1.51,0.96,2.45,1.85c0.94,0.89,1.76,2.08,2.45,3.56c0.69,1.48,1.04,3.29,1.04,5.42
		c0,2.97-0.88,5.65-2.63,8.05c-1.76,2.4-4.1,4.39-7.02,5.98c-2.82,1.58-5.86,2.79-9.13,3.64
		C-531-198.43-534.24-198.01-537.46-198.01z M-528.03-213c0.99-0.1,2.08-0.27,3.27-0.52c1.19-0.25,2.33-0.63,3.41-1.15
		c1.09-0.52,1.99-1.21,2.71-2.08c0.72-0.86,1.08-1.92,1.08-3.15c0-1.19-0.4-2.13-1.19-2.82c-0.79-0.69-1.74-1.2-2.86-1.52
		c-1.11-0.32-2.17-0.48-3.15-0.48h-0.59c-0.25,0-0.44,0.03-0.59,0.08c-0.3,1.83-0.64,3.76-1.04,5.79S-527.73-214.88-528.03-213z
		 M-524.24-233.86c1.53-0.3,2.99-0.69,4.38-1.19c1.38-0.49,2.51-1.06,3.38-1.71c0.86-0.64,1.3-1.33,1.3-2.08
		c0-0.94-0.37-1.68-1.11-2.23c-0.74-0.54-1.63-0.94-2.67-1.19c-1.04-0.25-2.01-0.37-2.9-0.37h-0.74c-0.34,1.98-0.67,3.7-0.96,5.16
		C-523.87-236-524.09-234.8-524.24-233.86z"/>
	<path class="st1" d="M-497.3-198.01c-3.26,0-5.94-1.26-8.02-3.79c-2.08-2.52-3.12-6.33-3.12-11.43c0-2.82,0.34-5.79,1.04-8.91
		c0.69-3.12,1.66-6.19,2.89-9.2c1.24-3.02,2.67-5.81,4.31-8.39c2.62-4.16,5.64-7.54,9.05-10.17c3.42-2.62,7-3.94,10.76-3.94
		c2.97,0,5.26,0.76,6.86,2.27c1.61,1.51,2.73,3.44,3.38,5.79c0.64,2.35,0.97,4.79,0.97,7.31c0,5.89-0.91,11.37-2.71,16.44
		c-1.81,5.07-4.15,9.37-7.02,12.88c-2.87,3.61-5.93,6.37-9.17,8.28C-491.3-198.96-494.38-198.01-497.3-198.01z M-493.3-210.26
		c2.23,0,4.19-0.74,5.9-2.23c1.71-1.48,3.16-3.38,4.34-5.68c1.19-2.3,2.08-4.71,2.67-7.24c0.59-2.52,0.89-4.8,0.89-6.83
		c0-0.79-0.07-1.64-0.22-2.56c-0.15-0.92-0.47-1.72-0.97-2.41c-0.5-0.69-1.26-1.04-2.3-1.04c-2.27,0-4.33,0.83-6.16,2.49
		c-1.83,1.66-3.37,3.75-4.6,6.27c-1.24,2.57-2.15,5.1-2.75,7.57c-0.59,2.48-0.89,4.73-0.89,6.75c0,1.04,0.37,2.12,1.11,3.23
		C-495.52-210.81-494.53-210.26-493.3-210.26z"/>
	<path class="st1" d="M-460.71-198.01c-3.26,0-5.94-1.26-8.02-3.79c-2.08-2.52-3.12-6.33-3.12-11.43c0-2.82,0.34-5.79,1.04-8.91
		c0.69-3.12,1.66-6.19,2.89-9.2c1.24-3.02,2.67-5.81,4.31-8.39c2.62-4.16,5.64-7.54,9.05-10.17c3.42-2.62,7-3.94,10.76-3.94
		c2.97,0,5.26,0.76,6.86,2.27c1.61,1.51,2.73,3.44,3.38,5.79c0.64,2.35,0.97,4.79,0.97,7.31c0,5.89-0.91,11.37-2.71,16.44
		c-1.81,5.07-4.15,9.37-7.02,12.88c-2.87,3.61-5.93,6.37-9.17,8.28C-454.71-198.96-457.79-198.01-460.71-198.01z M-456.7-210.26
		c2.23,0,4.19-0.74,5.9-2.23c1.71-1.48,3.16-3.38,4.34-5.68c1.19-2.3,2.08-4.71,2.67-7.24c0.59-2.52,0.89-4.8,0.89-6.83
		c0-0.79-0.07-1.64-0.22-2.56c-0.15-0.92-0.47-1.72-0.97-2.41c-0.5-0.69-1.26-1.04-2.3-1.04c-2.27,0-4.33,0.83-6.16,2.49
		c-1.83,1.66-3.37,3.75-4.6,6.27c-1.24,2.57-2.15,5.1-2.75,7.57c-0.59,2.48-0.89,4.73-0.89,6.75c0,1.04,0.37,2.12,1.11,3.23
		C-458.93-210.81-457.94-210.26-456.7-210.26z"/>
	<path class="st1" d="M-440.3-198.75c2.18-6.63,4.26-13.09,6.23-19.37c0.84-2.57,1.71-5.32,2.6-8.24c0.89-2.92,1.78-5.85,2.67-8.8
		c0.89-2.94,1.73-5.77,2.52-8.5c0.79-2.72,1.46-5.14,2-7.27c2.72,0,5.29-0.15,7.72-0.45c1.24-0.15,2.51-0.3,3.82-0.44
		c1.31-0.15,2.66-0.27,4.04-0.37l-0.44,3.64c-0.1,0.69-0.2,1.4-0.3,2.12c-0.1,0.72-0.2,1.45-0.3,2.19c-0.1,0.74-0.22,1.49-0.37,2.26
		s-0.27,1.55-0.37,2.34c-0.2,1.53-0.5,3.68-0.89,6.42c-0.4,2.75-0.86,5.73-1.41,8.95h0.97c1.43-3.76,2.62-6.89,3.56-9.39
		c0.94-2.5,1.71-4.54,2.3-6.12c0.84-2.33,1.76-4.68,2.75-7.05c0.99-2.38,1.81-4.21,2.45-5.49c1.19-0.1,2.61-0.26,4.27-0.48
		c1.66-0.22,3.34-0.48,5.05-0.78c1.71-0.3,3.18-0.54,4.42-0.74c-0.69,4.16-1.32,8.35-1.89,12.58c-0.57,4.23-1.07,8.26-1.49,12.1
		c-0.42,3.84-0.78,7.29-1.08,10.35c-0.3,3.07-0.57,6.1-0.82,9.09c-0.25,2.99-0.5,5.95-0.74,8.87l-12.92,2.3
		c0-0.1,0.08-1.21,0.22-3.34c0.15-2.13,0.4-4.77,0.74-7.94c0.34-3.17,0.69-6.17,1.04-9.02c0.34-2.84,0.69-5.18,1.04-7.01h-0.67
		c-1.24,3.76-2.74,7.87-4.49,12.32c-1.76,4.45-3.48,9.38-5.16,14.77c-1.73,0.05-3.22,0.11-4.45,0.18c-1.24,0.08-2.67,0.16-4.3,0.26
		l2.37-27.53h-1.11c-0.05,0.54-0.27,1.59-0.67,3.15c-0.4,1.56-0.87,3.34-1.41,5.34c-0.55,2.01-1.11,4-1.71,5.98
		c-2.23,7.77-3.41,11.88-3.56,12.32L-440.3-198.75z"/>
</g>
<path class="st1" d="M-2259.18,416.58c1.88-6.43,3.68-13.75,5.42-21.97c1.74-8.23,3.37-16.62,4.91-25.19
	c1.53-8.56,2.97-16.52,4.31-23.87c1.34-7.36,2.41-13.45,3.22-18.26c1.47-8.96,2.91-18.03,4.31-27.19c1.4-9.16,2.78-18.48,4.11-27.99
	l67.22-3.41l-5.82,24.68h-31.5l-6.22,35.72c2.14-0.13,4.18-0.2,6.11-0.2c1.94,0,3.85,0,5.72,0h9.43c1.6,0,3,0,4.21,0
	c1.2,0,2.27-0.07,3.21-0.2c-0.13,1.87-0.33,3.71-0.6,5.51c-0.27,1.81-0.53,3.65-0.8,5.52l-1.8,10.83c-2.81,0-6.86-0.1-12.14-0.3
	c-5.28-0.2-10.87-0.36-16.75-0.5l-9.23,59.19c-2.27,0.4-4.51,0.8-6.72,1.2c-2.2,0.41-4.45,0.87-6.72,1.4
	c-3.75,0.68-7.83,1.48-12.24,2.41C-2251.96,414.91-2255.84,415.78-2259.18,416.58z"/>
<path class="st1" d="M-2189.16,416.78c1.47-10.56,3.04-21.19,4.71-31.9c1.67-10.7,3.41-21.03,5.22-31
	c1.81-9.97,3.52-18.97,5.12-26.99c1.74-8.69,3.48-17.52,5.22-26.48c1.74-8.96,3.54-17.99,5.42-27.08l35.11-4.62l-10.43,45.34
	c-1.87,7.89-3.78,16.35-5.71,25.38c-1.94,9.03-3.71,17.76-5.31,26.19c-1.61,8.43-2.88,15.91-3.81,22.47
	c3.34-0.27,6.92-0.43,10.74-0.5c3.81-0.07,7.18-0.11,10.13-0.11c0.13,3.08,0.4,6.32,0.8,9.73c0.4,3.41,0.83,6.36,1.31,8.83
	c0.47,2.47,0.7,3.85,0.7,4.11c-0.54,0-1.04,0-1.5,0c-0.47,0-0.98-0.07-1.51-0.2h-3.21c-5.22,0-11.01,0.24-17.36,0.7
	s-12.64,1.2-18.86,2.2C-2178.63,413.87-2184.21,415.18-2189.16,416.78z"/>
<path class="st1" d="M-2132.17,416.18c2.27-7.89,4.51-16.86,6.72-26.89c2.2-10.03,4.34-20.3,6.42-30.8
	c2.07-10.5,4.05-20.43,5.92-29.79c1.74-8.56,3.41-17.26,5.02-26.08c1.6-8.83,3.21-17.72,4.81-26.69l31.3-5.01
	c-1.74,8.96-3.48,17.82-5.22,26.58c-1.74,8.76-3.48,17.49-5.22,26.18c-1.87,9.36-3.81,19.26-5.81,29.69
	c-2.01,10.43-3.95,20.7-5.82,30.8c-1.88,10.1-3.61,19.5-5.22,28.19c-2.41,0-5.42,0.16-9.03,0.5c-3.61,0.33-7.23,0.73-10.83,1.21
	c-3.61,0.47-6.65,0.9-9.13,1.3C-2130.74,415.78-2132.04,416.05-2132.17,416.18z"/>
<path class="st1" d="M-2091.45,416.58c4.02-18.06,7.83-35.72,11.44-52.97c1.47-6.96,2.98-14.41,4.51-22.37
	c1.53-7.96,3.11-16.02,4.72-24.18c1.6-8.16,3.07-15.88,4.41-23.17c1.34-7.29,2.41-13.67,3.21-19.16c5.36-1.61,11.14-3.08,17.36-4.42
	c6.22-1.34,11.81-2.01,16.75-2.01c8.03,0,14.38,1.71,19.06,5.12c4.68,3.41,8.03,7.99,10.03,13.74c2.01,5.76,3.01,12.04,3.01,18.86
	c0,7.49-1.38,14.69-4.11,21.57c-2.74,6.89-6.43,13.08-11.04,18.57c-4.61,5.49-9.9,9.83-15.85,13.04
	c-5.96,3.21-12.14,4.82-18.57,4.82h-2.2c-1.07,4.55-2.07,9.49-3.01,14.85c-0.93,5.35-1.74,10.29-2.41,14.84
	c-0.53,2.68-1,5.36-1.4,8.03c-0.4,2.68-0.8,5.36-1.2,8.03L-2091.45,416.58z M-2044.7,342.94c3.08-0.8,6.16-2.83,9.23-6.11
	c3.08-3.27,5.62-7.45,7.63-12.54c2.01-5.09,3.01-10.64,3.01-16.65c0-4.95-1.11-8.69-3.31-11.23c-2.2-2.54-4.65-3.81-7.32-3.81
	c-1.48,8.83-2.95,17.19-4.42,25.08C-2041.36,325.56-2042.96,333.99-2044.7,342.94z"/>
<path class="st1" d="M-1988.52,492.48c-7.25,0-13.23-1.23-17.92-3.68c-4.7-2.45-8.19-5.78-10.48-10c-2.3-4.21-3.44-8.93-3.44-14.15
	c0-5.34,1.14-10.67,3.44-16c2.29-5.33,5.52-10.08,9.68-14.24s9.06-6.99,14.72-8.48c-3.52-1.81-6.56-4.24-9.12-7.28
	s-3.84-6.53-3.84-10.48c0-7.25,2-13.6,6-19.04c4-5.44,9.25-9.71,15.75-12.8c6.51-3.09,13.55-4.64,21.12-4.64
	c5.01,0,9.63,1.15,13.84,3.44c4.21,2.3,7.49,5.47,9.84,9.52l-13.12,14.72c-1.39-1.28-2.64-2.38-3.76-3.28
	c-1.12-0.9-2.59-1.63-4.4-2.16c-1.82-0.53-4.48-0.8-8-0.8c-4.26,0-7.43,1.39-9.52,4.16c-2.08,2.77-3.12,6.03-3.12,9.76
	c0,4.16,1.17,7.66,3.52,10.48c2.35,2.83,5.66,4.24,9.92,4.24h1.6c0.32,0,0.64-0.03,0.96-0.08c0.33-0.05,0.64-0.13,0.96-0.24
	c0-0.96,0.05-1.65,0.16-2.08c0.11-0.33,0.16-0.64,0.16-0.96s0.05-0.69,0.16-1.12c0-0.96,0.05-1.65,0.16-2.08
	c2.14,0,4.19-0.03,6.16-0.08c1.97-0.05,3.87-0.13,5.68-0.24c1.81-0.1,3.68-0.21,5.6-0.32c1.92-0.1,3.89-0.21,5.92-0.32
	c-0.21,0.64-0.32,1.44-0.32,2.4v4c1.17,0,2.77-0.21,4.8-0.64s4.26-0.9,6.72-1.44l1.76,16.31c-2.88,0.43-5.49,0.83-7.84,1.2
	c-2.35,0.37-3.95,0.56-4.8,0.56c0,10.56-1.59,20.05-4.8,28.47c-3.2,8.43-8.37,15.1-15.52,20
	C-1967.03,490.03-1976.58,492.48-1988.52,492.48z M-1983.24,472.32c3.84,0,6.91-1.28,9.2-3.84c2.29-2.56,4.06-5.75,5.28-9.6
	c1.22-3.84,2.11-7.73,2.64-11.68c0.53-3.95,0.9-7.25,1.12-9.92c-10.46,0.75-18.05,3.39-22.8,7.92c-4.75,4.53-7.12,9.73-7.12,15.6
	c0,3.41,1.04,6.18,3.12,8.32C-1989.72,471.26-1986.87,472.32-1983.24,472.32z"/>
<path class="st1" d="M-2445.95,596.06c-4.95,0-9.56-0.41-13.85-1.21c6.43-23.41,11.54-46.98,15.35-70.73
	c3.81-23.74,7.46-47.65,10.94-71.73c6.96-1.47,14.17-2.78,21.67-3.91c7.49-1.13,15.25-1.71,23.28-1.71c4.42,0,9.09,0.77,14.04,2.31
	c4.95,1.53,9.13,4.28,12.54,8.22c3.41,3.95,5.12,9.54,5.12,16.75c0,6.69-1.4,12.84-4.21,18.46c-2.81,5.62-6.36,10.43-10.64,14.45
	c-4.28,4.01-8.69,6.89-13.24,8.63c1.88,0.93,4.08,2.6,6.62,5.01c2.54,2.41,4.75,5.62,6.62,9.63c1.88,4.01,2.81,8.89,2.81,14.65
	c0,8.03-2.38,15.28-7.12,21.77c-4.75,6.49-11.07,11.87-18.97,16.16c-7.62,4.28-15.85,7.55-24.67,9.83
	C-2428.49,594.93-2437.25,596.06-2445.95,596.06z M-2420.47,555.53c2.68-0.26,5.62-0.73,8.83-1.4c3.21-0.67,6.29-1.71,9.23-3.11
	c2.94-1.4,5.38-3.27,7.32-5.62c1.93-2.33,2.91-5.18,2.91-8.52c0-3.22-1.08-5.76-3.22-7.63c-2.14-1.88-4.71-3.24-7.72-4.11
	c-3-0.87-5.85-1.31-8.52-1.31h-1.61c-0.67,0-1.2,0.07-1.61,0.2c-0.8,4.95-1.74,10.16-2.81,15.65
	C-2418.73,545.17-2419.66,550.45-2420.47,555.53z M-2410.23,499.14c4.14-0.8,8.09-1.87,11.84-3.21c3.74-1.33,6.78-2.87,9.13-4.61
	c2.33-1.74,3.51-3.61,3.51-5.62c0-2.54-1-4.55-3.01-6.03c-2-1.47-4.41-2.54-7.22-3.21c-2.81-0.67-5.42-1-7.83-1h-2.01
	c-0.93,5.36-1.8,10-2.6,13.94C-2409.23,493.36-2409.83,496.61-2410.23,499.14z"/>
<path class="st1" d="M-2337.41,596.06c-8.83,0-16.05-3.41-21.67-10.24c-5.62-6.82-8.43-17.12-8.43-30.9
	c0-7.62,0.93-15.64,2.81-24.08c1.87-8.43,4.48-16.72,7.82-24.88c3.35-8.16,7.23-15.72,11.64-22.67
	c7.09-11.23,15.25-20.39,24.48-27.49c9.23-7.09,18.92-10.64,29.1-10.64c8.03,0,14.21,2.04,18.56,6.12c4.34,4.08,7.39,9.3,9.13,15.65
	c1.74,6.35,2.61,12.94,2.61,19.77c0,15.92-2.45,30.73-7.32,44.44c-4.89,13.72-11.21,25.32-18.97,34.81
	c-7.76,9.76-16.02,17.23-24.78,22.37C-2321.18,593.48-2329.51,596.06-2337.41,596.06z M-2326.57,562.96
	c6.03,0,11.34-2.01,15.95-6.03c4.61-4.01,8.53-9.13,11.74-15.35s5.62-12.74,7.23-19.56c1.6-6.83,2.4-12.97,2.4-18.46
	c0-2.14-0.2-4.44-0.6-6.92c-0.4-2.47-1.27-4.65-2.61-6.52c-1.34-1.87-3.41-2.81-6.22-2.81c-6.15,0-11.7,2.25-16.65,6.73
	c-4.96,4.48-9.1,10.13-12.44,16.95c-3.35,6.96-5.82,13.78-7.42,20.47c-1.61,6.69-2.41,12.78-2.41,18.26c0,2.82,1,5.72,3,8.74
	C-2332.59,561.44-2329.91,562.96-2326.57,562.96z"/>
<path class="st1" d="M-2238.49,596.06c-8.83,0-16.05-3.41-21.67-10.24c-5.62-6.82-8.43-17.12-8.43-30.9
	c0-7.62,0.93-15.64,2.81-24.08c1.87-8.43,4.48-16.72,7.82-24.88c3.35-8.16,7.23-15.72,11.64-22.67
	c7.09-11.23,15.25-20.39,24.48-27.49c9.23-7.09,18.92-10.64,29.1-10.64c8.03,0,14.21,2.04,18.56,6.12c4.34,4.08,7.39,9.3,9.13,15.65
	s2.61,12.94,2.61,19.77c0,15.92-2.45,30.73-7.32,44.44c-4.89,13.72-11.21,25.32-18.97,34.81c-7.76,9.76-16.02,17.23-24.78,22.37
	C-2222.27,593.48-2230.59,596.06-2238.49,596.06z M-2227.66,562.96c6.03,0,11.34-2.01,15.95-6.03c4.61-4.01,8.53-9.13,11.74-15.35
	s5.62-12.74,7.23-19.56c1.6-6.83,2.4-12.97,2.4-18.46c0-2.14-0.2-4.44-0.6-6.92c-0.4-2.47-1.27-4.65-2.61-6.52
	c-1.34-1.87-3.41-2.81-6.22-2.81c-6.15,0-11.7,2.25-16.65,6.73c-4.96,4.48-9.1,10.13-12.44,16.95c-3.35,6.96-5.82,13.78-7.42,20.47
	c-1.61,6.69-2.41,12.78-2.41,18.26c0,2.82,1,5.72,3,8.74C-2233.67,561.44-2230.99,562.96-2227.66,562.96z"/>
<path class="st1" d="M-2183.31,594.05c5.89-17.93,11.5-35.38,16.85-52.37c2.28-6.95,4.61-14.38,7.02-22.26
	c2.41-7.89,4.82-15.82,7.23-23.78c2.41-7.95,4.68-15.61,6.83-22.97c2.13-7.36,3.94-13.9,5.41-19.66c7.36,0,14.31-0.4,20.87-1.21
	c3.34-0.4,6.78-0.8,10.34-1.2c3.54-0.4,7.18-0.73,10.93-1l-1.2,9.83c-0.27,1.88-0.54,3.78-0.81,5.72c-0.27,1.93-0.53,3.91-0.8,5.92
	c-0.27,2-0.6,4.04-1,6.11c-0.4,2.07-0.73,4.19-1,6.32c-0.53,4.15-1.34,9.94-2.41,17.36c-1.07,7.43-2.33,15.49-3.81,24.18h2.61
	c3.88-10.16,7.09-18.63,9.63-25.38c2.54-6.75,4.61-12.27,6.21-16.56c2.28-6.29,4.75-12.64,7.43-19.06
	c2.67-6.43,4.88-11.37,6.62-14.85c3.21-0.27,7.05-0.7,11.54-1.31c4.48-0.6,9.03-1.31,13.64-2.11c4.61-0.8,8.6-1.47,11.94-2.01
	c-1.87,11.24-3.58,22.57-5.11,34.01c-1.54,11.44-2.88,22.34-4.02,32.71c-1.13,10.37-2.11,19.7-2.91,27.99
	c-0.81,8.29-1.54,16.49-2.21,24.58c-0.67,8.09-1.34,16.08-2,23.98l-34.92,6.21c0-0.26,0.2-3.27,0.6-9.02
	c0.4-5.76,1.07-12.91,2.01-21.47c0.93-8.56,1.87-16.69,2.81-24.38c0.93-7.69,1.87-14.01,2.81-18.96h-1.8
	c-3.35,10.16-7.4,21.27-12.14,33.3c-4.75,12.04-9.4,25.35-13.94,39.93c-4.69,0.13-8.69,0.3-12.04,0.5c-3.34,0.2-7.22,0.44-11.63,0.7
	l6.42-74.43h-3c-0.14,1.47-0.73,4.31-1.8,8.52c-1.08,4.21-2.34,9.03-3.81,14.44c-1.48,5.42-3.01,10.81-4.62,16.16
	c-6.02,21-9.23,32.1-9.63,33.3L-2183.31,594.05z"/>
<g>
	<path class="st1" d="M438.66,365.37c-0.6-0.64-1.18-1.28-1.79-1.91c-8.57-8.88-18.72-18.65-14.1-31.56
		c5.25-14.67,20.53-9.34,32.08-10.78c3.96,0.16,7.93,0.31,11.89,0.47c-1.94,11.52-1.56,22.54,7.36,31.46
		c10.95,10.96,19.27,10.87,23.35-5.86c4.49,0.96,9.23,7.76,13.32-0.58c4.24,0.27,8.49,0.54,12.73,0.82c0,0-0.01-0.04-0.01-0.05
		c1.37,1.88,2.74,3.76,4.11,5.63c0,0,0.81,0.7,0.81,0.7c1.49,1.52,2.99,3.03,4.48,4.55c0,0,0.63,0.78,0.63,0.78
		c0.35,4.19,1.89,7.59,6.09,9.25c11.43,17.14-2.57,31.48-6.43,46.3c-3.54,13.61-2.6,20.83,8.84,30.55
		c78.43,66.68,104.99,171.49,68.75,265.59c-35.93,93.27-127.97,153.79-229.6,150.96c-114.62-3.2-218.01-100.7-225.14-212.3
		c-8.18-128.19,71.3-234.71,190.5-255.29c1.72-0.3,3.47-0.46,5.19-0.77c39.53-7.01,39.53-7.01,53.09-45.39
		c11.75,4.35,15.38,19.11,28.05,21.97c2.59,4.18,7.11,5.2,9.9,2.18C445.22,369.46,441.36,366.93,438.66,365.37z M198.43,619.87
		c16.54-87.43,67.11-142,152.11-165.04c4.12-1.12,8.43-2.88,11.7-5.52c4.88-3.94,8.16-9.44,5.79-16.07
		c-2.09-5.85-5.32-11.35-12.4-12.07c-7.87-0.8-15.41,0.32-23.12,2.91c-66.22,22.23-108.72,67.59-128.77,133.69
		C197.79,577.37,187.43,597.43,198.43,619.87z M429.21,393.99c0.94-7.24-2.38-14.37-8.82-13.06c-13.94,2.82-12.36,17.22-15.94,27.37
		c-1.45,4.11,0.9,11.28,4.97,10.17C421.17,415.26,427.05,405.63,429.21,393.99z"/>
	<path class="st4" d="M523.51,347.43c-4.24-0.27-8.49-0.54-12.73-0.81c7.23-24.95-4.35-45.09-15.84-65.96
		c-17.92,20.78-17.92,20.78-1.64,56.27c-2.08,0.03-4.16,0.06-6.23,0.09c-9.03-2.17-3.76-23.17-20.31-15.43
		c-3.96-0.16-7.93-0.31-11.89-0.47c14.25-19.8,18.62-46.63,44.72-58.16c11.22-4.95,6-14.78-1.32-20.54
		c-9.23-7.26-19.51-13.21-28.82-19.38c1.18-9.76,7.61-6.98,12.18-7.2c34.8-1.63,47.13-12.87,52.47-48.11
		c0.75-4.93-1.02-11.49,5.2-13.51c6.38-2.07,8.22,4.86,11.77,8.16c24.85,23.14,36.79,22.74,62.95-2.26
		c3.01-2.87,5.37-7.64,10.6-5.18c4.94,2.32,2.23,7.69,3.63,11.31c11.56,29.84,9.97,70.22,56.99,72.39c2.61,0.12,6.79,3.73,7.19,6.22
		c0.75,4.6-2.86,6.64-7.58,8.4c-46.32,17.26-50.55,23.82-42.46,69.65c2.27,12.85-1.04,17.37-12.94,12.46
		c-14.63-6.05-26.76-5.8-36.6,8.3c-6.33,9.07-10.82,4.15-15.81-2.29C551.3,308.1,540.92,309.36,523.51,347.43z M563.39,307.46
		c9.57,7.7,17.1,22.15,24.81,18.45c11.67-5.61,35.04-5.43,34-12.65c-4.75-33.01,50.38-57.95,12.02-93.93
		c-1.43-1.34,0.35-5.96-1.06-7.48c-8.87-9.53-13.09-29.41-28.54-25.29c-18.92,5.05-34.98-0.71-51.99-1.33
		c-12.24-0.44-16.39,31.68-37.19,37.09c-14.78,3.85-7.31,9.93-2.72,17.72c6.73,11.41,16.51,7.71,25.42,7.1
		c15.92-1.1,34.36-3.38,41.14,13.48C585.98,277.28,590.51,298.08,563.39,307.46z M525.31,321.61c13.31-14.68,11.33-29.44,8.19-44.08
		c-1.36-6.34,2.39-18.04-11.41-14.63c-10.93,2.69-17.12,10.17-13.4,21.24C512.89,296.64,519.33,308.4,525.31,321.61z M541.24,306.63
		c22.36-11.64,37.6-15.79,29.61-38.87c-4.82-13.92-16.06-12.94-21.54-10.31C524.41,269.44,553.43,286.78,541.24,306.63z"/>
	<path class="st5" d="M683.9,136.63c9.53-28.57,29.22-49.24,46.25-71.73c5.99-7.91,15.33-11.36,22.33-4.17
		c7.22,7.41,2.23,16.28-4.95,22.39C726.43,101.08,705.13,118.81,683.9,136.63z"/>
	<path class="st6" d="M534.14,110.09c-8.57-17.47-17.66-34.71-25.44-52.52c-2.82-6.44-7.35-16.06,3.07-20.07
		c10.42-4.02,15.77,2.21,17.55,12.69c3.3,19.45,7.18,38.8,10.82,58.2C538.14,108.95,536.14,109.52,534.14,110.09z"/>
	<path class="st7" d="M470.65,152.06c-13.49-8.43-27.17-16.58-40.37-25.44c-4.06-2.72-8.79-7.2-3.87-12.87
		c4.06-4.67,9.56-4.33,13.89-0.33c11.73,10.86,23.13,22.09,34.65,33.18C473.52,148.42,472.08,150.24,470.65,152.06z"/>
	<path class="st8" d="M684.14,355.31c9.27,9.8,18.6,19.54,27.77,29.42c4.84,5.22,9.98,11.19,2.53,17.6
		c-8.42,7.25-12.49-1.05-15.86-6.48c-7.14-11.49-13.39-23.53-20.01-35.34C680.43,358.78,682.28,357.05,684.14,355.31z"/>
	<path class="st4" d="M539.61,368.31c-4.2-1.65-5.74-5.06-6.09-9.25C537.06,361.15,539.81,363.76,539.61,368.31z"/>
	<path class="st4" d="M527.6,353.02c-1.37-1.88-2.74-3.76-4.11-5.63C524.87,349.26,526.24,351.14,527.6,353.02z"/>
	<path class="st4" d="M532.9,358.27c-1.49-1.52-2.99-3.04-4.48-4.55C529.91,355.24,531.4,356.76,532.9,358.27z"/>
	<path class="st9" d="M198.43,619.87c-11-22.44-0.63-42.5,5.31-62.1c20.05-66.1,62.55-111.46,128.77-133.69
		c7.71-2.59,15.25-3.71,23.12-2.91c7.08,0.72,10.3,6.22,12.4,12.07c2.37,6.63-0.91,12.13-5.79,16.07c-3.27,2.64-7.58,4.4-11.7,5.52
		C265.53,477.87,214.96,532.44,198.43,619.87z"/>
	<path class="st10" d="M493.29,336.93c-16.28-35.5-16.28-35.5,1.64-56.27c11.49,20.87,23.07,41.01,15.84,65.96
		c-4.09,8.34-8.83,1.54-13.32,0.58c0,0,0.13,0.3,0.13,0.3c-0.32-3.52,0.83-8.56-5.78-5.62l0.49,0.47
		C492.62,340.54,492.96,338.74,493.29,336.93z"/>
	<path class="st11" d="M466.75,321.59c16.55-7.74,11.28,13.26,20.31,15.43c0.23,3.27,1.17,5.83,5.23,5.33c0,0-0.49-0.47-0.49-0.47
		c0.51,3.32-1.09,8.83,5.78,5.62c0,0-0.14-0.31-0.13-0.3c-4.07,16.73-12.39,16.83-23.35,5.86
		C465.19,344.13,464.81,333.11,466.75,321.59z"/>
	<path class="st12" d="M429.21,393.99c-2.16,11.65-8.04,21.27-19.78,24.47c-4.08,1.11-6.42-6.06-4.97-10.17
		c3.58-10.15,2-24.55,15.94-27.37C426.83,379.62,430.15,386.75,429.21,393.99z"/>
	<path class="st13" d="M438.66,365.37c2.7,1.56,6.56,4.08,4.1,6.74c-2.79,3.02-7.31,1.99-9.9-2.18
		C434.79,368.41,436.73,366.89,438.66,365.37z"/>
	<path class="st14" d="M563.39,307.46c27.12-9.38,22.59-30.18,15.89-46.84c-6.78-16.86-25.22-14.59-41.14-13.48
		c-8.91,0.62-18.69,4.31-25.42-7.1c-4.59-7.79-12.07-13.86,2.72-17.72c20.79-5.42,24.95-37.53,37.19-37.09
		c17.02,0.61,33.07,6.37,51.99,1.33c15.45-4.12,19.67,15.76,28.54,25.29c1.41,1.52-0.37,6.14,1.06,7.48
		c38.37,35.98-16.77,60.92-12.02,93.93c1.04,7.23-22.33,7.05-34,12.65C580.49,329.61,572.96,315.16,563.39,307.46z"/>
	<path class="st15" d="M525.31,321.61c-5.98-13.21-12.42-24.97-16.62-37.48c-3.72-11.07,2.48-18.55,13.4-21.24
		c13.8-3.4,10.04,8.29,11.41,14.63C536.64,292.17,538.61,306.93,525.31,321.61z"/>
	<path class="st15" d="M541.24,306.63c12.19-19.86-16.83-37.19,8.08-49.18c5.47-2.64,16.72-3.61,21.54,10.31
		C578.83,290.84,563.6,294.99,541.24,306.63z"/>
	<path class="st16" d="M492.29,342.35c-4.07,0.51-5.01-2.06-5.23-5.33c2.08-0.03,4.16-0.06,6.23-0.09
		C492.96,338.74,492.62,340.54,492.29,342.35z"/>
	<path class="st16" d="M497.58,347.49c-6.86,3.21-5.26-2.29-5.78-5.62C498.41,338.93,497.26,343.97,497.58,347.49z"/>
</g>
<g>
	<path class="st1" d="M-231.58,454.08c-5.15,0.24-9.44-0.43-12.85-2.02c-3.42-1.58-6.01-3.83-7.78-6.75
		c-1.77-2.92-2.74-6.23-2.92-9.94c-0.18-3.79,0.45-7.62,1.91-11.49c1.45-3.87,3.59-7.35,6.4-10.44c2.82-3.1,6.21-5.27,10.18-6.52
		c-2.56-1.17-4.8-2.79-6.72-4.87c-1.92-2.07-2.95-4.51-3.08-7.32c-0.24-5.15,0.97-9.73,3.63-13.73c2.66-4,6.25-7.21,10.77-9.62
		c4.52-2.42,9.47-3.75,14.85-4c3.56-0.17,6.88,0.49,9.95,1.98c3.07,1.49,5.51,3.63,7.31,6.44l-8.83,10.9
		c-1.03-0.86-1.95-1.6-2.78-2.21c-0.83-0.61-1.9-1.07-3.2-1.39c-1.31-0.32-3.21-0.42-5.71-0.3c-3.03,0.14-5.24,1.23-6.62,3.27
		c-1.38,2.04-2.01,4.39-1.89,7.04c0.14,2.96,1.09,5.4,2.85,7.33c1.76,1.93,4.16,2.82,7.19,2.68l1.14-0.05
		c0.23-0.01,0.45-0.04,0.68-0.09c0.23-0.05,0.45-0.11,0.68-0.2c-0.03-0.68-0.02-1.18,0.04-1.48c0.07-0.24,0.09-0.46,0.08-0.69
		c-0.01-0.23,0.01-0.49,0.08-0.8c-0.03-0.68-0.02-1.18,0.04-1.48c1.52-0.07,2.97-0.16,4.37-0.27c1.4-0.1,2.74-0.22,4.03-0.36
		c1.28-0.13,2.61-0.27,3.97-0.41c1.36-0.14,2.76-0.28,4.19-0.42c-0.13,0.46-0.18,1.03-0.15,1.72l0.13,2.84
		c0.83-0.04,1.96-0.25,3.39-0.61s3-0.79,4.73-1.25l1.79,11.53c-2.03,0.4-3.88,0.77-5.53,1.12c-1.66,0.34-2.79,0.53-3.4,0.56
		c0.35,7.5-0.46,14.3-2.46,20.39c-1.99,6.1-5.44,11.01-10.36,14.73C-216.39,451.61-223.09,453.68-231.58,454.08z M-228.5,439.57
		c2.73-0.13,4.87-1.14,6.41-3.04c1.54-1.89,2.69-4.22,3.43-6.99c0.74-2.77,1.24-5.57,1.49-8.39s0.4-5.18,0.46-7.09
		c-7.4,0.88-12.71,3.01-15.93,6.39c-3.22,3.38-4.73,7.15-4.54,11.32c0.11,2.42,0.95,4.36,2.49,5.81
		C-233.14,439.04-231.08,439.7-228.5,439.57z"/>
	<g>
		<path class="st2" d="M-454.54,179.98c0,0-33.13,280.19-7.36,335.49c1.94,4.16,3.64,6.36,5.19,6.84
			c9.07,2.83,12.66-53.66,26.31-120.99c2.61-12.89,5.6-26.18,9.06-39.53c16.29-62.79,43.16-126.83,92-156.61
			C-303.45,189.44-452.94,165.8-454.54,179.98z"/>
		<path class="st2" d="M-399.29,478.73c-31.72,14.5-57.42,43.58-57.42,43.58l35.37-160.51
			C-421.34,361.8-373.49,466.93-399.29,478.73z"/>
	</g>
	<path class="st1" d="M-744.58,459.23c2.87-10.48,5.59-22.41,8.18-35.8c2.59-13.4,5-27.07,7.27-41.01
		c2.25-13.93,4.36-26.88,6.32-38.86c1.97-11.97,3.53-21.89,4.71-29.71c2.13-14.59,4.21-29.33,6.23-44.25
		c2.02-14.9,3.98-30.07,5.89-45.53l108.97-7.43l-8.75,40.21l-51.11,0.89l-9.09,58.13c3.47-0.27,6.78-0.45,9.92-0.5
		c3.15-0.05,6.24-0.11,9.29-0.16l15.3-0.27c2.6-0.05,4.88-0.08,6.84-0.12c1.95-0.03,3.68-0.17,5.2-0.41
		c-0.16,3.04-0.44,6.02-0.83,8.96c-0.39,2.95-0.76,5.94-1.14,8.98l-2.62,17.63c-4.56,0.08-11.13,0.03-19.71-0.15
		c-8.58-0.17-17.64-0.28-27.2-0.34l-13.32,96.31c-3.67,0.71-7.3,1.43-10.87,2.14c-3.57,0.72-7.2,1.54-10.86,2.47
		c-6.06,1.21-12.66,2.62-19.79,4.25C-732.9,456.31-739.17,457.83-744.58,459.23z"/>
	<path class="st1" d="M-614.49,453.37c2.09-17.18,4.33-34.48,6.74-51.89c2.41-17.42,4.94-34.22,7.59-50.45
		c2.66-16.23,5.18-30.87,7.55-43.94c2.58-14.14,5.15-28.53,7.72-43.12c2.57-14.58,5.24-29.28,8.03-44.1l56.84-8.49l-15.65,73.87
		c-2.81,12.86-5.67,26.64-8.56,41.35c-2.9,14.71-5.53,28.92-7.89,42.65c-2.37,13.72-4.23,25.9-5.55,36.57
		c5.41-0.53,11.22-0.9,17.41-1.11c6.18-0.21,11.66-0.37,16.44-0.46c0.3,4.99,0.83,10.24,1.57,15.77c0.75,5.53,1.53,10.3,2.37,14.3
		c0.82,4,1.25,6.22,1.26,6.64c-0.87,0.02-1.68,0.03-2.44,0.04c-0.77,0.01-1.59-0.08-2.46-0.28l-5.21,0.09
		c-8.47,0.15-17.85,0.69-28.15,1.63c-10.29,0.93-20.47,2.3-30.54,4.11C-597.48,448.36-606.51,450.63-614.49,453.37z"/>
	<path class="st1" d="M-335.98,435.2c6.02-29.46,11.71-58.25,17.09-86.39c2.19-11.34,4.44-23.5,6.7-36.47
		c2.27-12.98,4.6-26.11,6.98-39.42c2.37-13.3,4.54-25.89,6.51-37.77c1.97-11.88,3.53-22.29,4.67-31.22
		c8.66-2.76,18.01-5.32,28.08-7.67c10.07-2.35,19.12-3.6,27.16-3.74c13.04-0.23,23.41,2.37,31.12,7.78
		c7.7,5.41,13.26,12.76,16.69,22.04c3.43,9.3,5.23,19.48,5.43,30.56c0.21,12.18-1.83,23.9-6.08,35.16
		c-4.26,11.27-10.07,21.43-17.41,30.48c-7.34,9.04-15.81,16.25-25.38,21.63c-9.59,5.38-19.59,8.17-30.03,8.35l-3.58,0.06
		c-1.61,7.42-3.1,15.49-4.48,24.21c-1.36,8.71-2.53,16.78-3.49,24.18c-0.79,4.37-1.47,8.73-2.06,13.08
		c-0.57,4.36-1.15,8.72-1.72,13.07L-335.98,435.2z M-262.11,314.23c4.98-1.39,9.92-4.78,14.83-10.2
		c4.91-5.41,8.92-12.27,12.04-20.59c3.12-8.32,4.59-17.37,4.42-27.15c-0.14-8.04-2.05-14.1-5.7-18.16
		c-3.65-4.06-7.66-6.06-12.01-5.99c-2.15,14.38-4.3,28.01-6.47,40.87S-259.53,299.63-262.11,314.23z"/>
	<path class="st1" d="M-770.81,767.09c-9.12-0.01-17.63-0.78-25.53-2.27c11.91-43.14,21.42-86.6,28.5-130.37
		c7.1-43.76,13.89-87.85,20.37-132.23c12.83-2.69,26.14-5.08,39.96-7.15c13.81-2.07,28.12-3.1,42.92-3.08
		c8.14,0.01,16.77,1.44,25.89,4.3c9.12,2.84,16.82,7.91,23.1,15.19c6.28,7.3,9.41,17.6,9.39,30.9c-0.02,12.34-2.63,23.68-7.82,34.02
		c-5.19,10.35-11.76,19.22-19.66,26.61c-7.9,7.38-16.05,12.68-24.44,15.87c3.46,1.72,7.52,4.81,12.19,9.26
		c4.67,4.45,8.75,10.37,12.18,17.78c3.45,7.4,5.15,16.4,5.14,27.01c-0.02,14.8-4.42,28.17-13.19,40.11
		c-8.78,11.95-20.45,21.86-35.01,29.74c-14.06,7.87-29.24,13.88-45.52,18.06C-738.62,765.05-754.78,767.11-770.81,767.09z
		 M-723.72,692.42c4.94-0.47,10.36-1.34,16.29-2.56c5.92-1.23,11.6-3.13,17.02-5.71s9.93-6.02,13.52-10.34
		c3.57-4.3,5.39-9.55,5.4-15.71c0.01-5.93-1.97-10.62-5.91-14.07c-3.94-3.47-8.68-5.99-14.23-7.61c-5.54-1.6-10.79-2.42-15.71-2.43
		l-2.97,0c-1.23,0-2.21,0.13-2.97,0.37c-1.49,9.12-3.23,18.74-5.22,28.85C-720.48,673.32-722.21,683.06-723.72,692.42z
		 M-704.68,588.49c7.63-1.46,14.92-3.42,21.84-5.88c6.9-2.44,12.52-5.28,16.84-8.48c4.31-3.2,6.48-6.64,6.49-10.35
		c0.01-4.68-1.84-8.39-5.54-11.12c-3.68-2.72-8.12-4.69-13.3-5.94c-5.18-1.24-9.99-1.87-14.43-1.87l-3.7-0.01
		c-1.73,9.87-3.35,18.44-4.84,25.7C-702.81,577.84-703.94,583.81-704.68,588.49z"/>
	<path class="st1" d="M-171.18,711.82c-0.58-1.97-5.13-20.18-13.66-54.61c-2.29-8.77-4.47-17.61-6.55-26.49
		c-2.07-8.87-3.83-16.76-5.34-23.66c-1.49-6.9-2.29-11.54-2.43-13.94l-4.88-0.18l6.02,121.16c-7.15-0.68-13.43-1.3-18.84-1.83
		c-5.42-0.52-11.92-1.03-19.51-1.52c-6.52-23.93-13.27-45.8-20.27-65.62c-6.99-19.81-12.9-38.06-17.74-54.76l-2.93-0.11
		c1.23,8.08,2.38,18.39,3.44,30.93c1.07,12.54,2.11,25.79,3.12,39.73c1.02,13.95,1.68,25.6,1.99,34.96
		c0.31,9.35,0.46,14.25,0.45,14.68l-56.3-12.14c-0.61-12.85-1.22-25.86-1.83-39.03c-0.61-13.17-1.32-26.51-2.14-40.02
		c-0.81-13.49-1.84-28.69-3.07-45.59c-1.23-16.89-2.76-34.66-4.59-53.31c-1.82-18.65-3.92-37.14-6.29-55.49
		c5.39,1.07,11.81,2.39,19.25,3.96c7.44,1.57,14.78,2.98,22.01,4.22c7.24,1.24,13.45,2.17,18.64,2.8
		c2.62,5.75,5.92,13.91,9.87,24.49c3.97,10.57,7.61,21.02,10.93,31.36c2.34,7.05,5.38,16.13,9.11,27.23
		c3.74,11.11,8.44,25.03,14.14,41.76l4.24,0.15c-1.89-14.2-3.46-27.35-4.76-39.47c-1.3-12.11-2.27-21.55-2.88-28.31
		c-0.31-3.47-0.73-6.92-1.26-10.31s-0.95-6.72-1.27-9.98c-0.32-3.27-0.63-6.5-0.95-9.65c-0.32-3.17-0.65-6.27-0.97-9.33l-1.37-16.02
		c6.07,0.66,11.95,1.42,17.68,2.27c5.74,0.86,11.31,1.71,16.7,2.56c10.59,1.7,21.85,2.76,33.79,3.19c2.05,9.43,4.6,20.16,7.62,32.22
		c3.05,12.08,6.28,24.64,9.72,37.68c3.44,13.06,6.88,26.07,10.32,39.02c3.44,12.94,6.79,25.13,10.08,36.54
		c7.68,27.89,15.76,56.54,24.26,85.98L-171.18,711.82z"/>
	<g>
		<path class="st1" d="M-409.83,567.48c-0.16-0.11-0.32-0.22-0.49-0.33c-2.32-1.51-5.02-3.13-4.66-6.18
			c0.41-3.47,4.01-3.07,6.46-3.96c0.87-0.16,1.75-0.33,2.62-0.49c0.16,2.61,0.79,5,3.18,6.5c2.94,1.84,4.75,1.4,4.8-2.45
			c1.03-0.02,2.4,1.23,2.88-0.79c0.94-0.15,1.88-0.31,2.82-0.46c0,0,0-0.01,0-0.01c0.39,0.34,0.79,0.68,1.18,1.02
			c0,0,0.21,0.11,0.21,0.11c0.4,0.26,0.8,0.51,1.21,0.77c0,0,0.18,0.14,0.18,0.14c0.29,0.9,0.79,1.56,1.79,1.71
			c3.35,3.17,1.02,7,0.92,10.43c-0.09,3.15,0.48,4.67,3.46,6.22c20.46,10.61,31.51,32.15,28.33,54.5
			c-3.16,22.15-20.21,39.98-42.52,44.46c-25.17,5.05-52.62-11.03-59.78-35.03c-8.22-27.56,3.78-54.79,28.76-65.26
			c0.36-0.15,0.73-0.27,1.09-0.43c8.27-3.51,8.27-3.51,9.31-12.57c2.78,0.36,4.32,3.4,7.22,3.39c0.77,0.78,1.81,0.78,2.27-0.02
			C-408.19,568.05-409.16,567.69-409.83,567.48z M-449.48,635.07c-0.78-19.91,7.52-34.35,24.91-43.64c0.84-0.45,1.7-1.05,2.28-1.79
			c0.87-1.11,1.31-2.47,0.46-3.8c-0.75-1.17-1.73-2.21-3.31-2.01c-1.76,0.22-3.35,0.84-4.9,1.79c-13.33,8.17-20.33,20.2-21.39,35.63
			C-451.75,625.83-453,630.73-449.48,635.07z M-410.46,574.2c-0.16-1.63-1.24-3.01-2.58-2.41c-2.9,1.31-1.83,4.38-2.1,6.77
			c-0.11,0.97,0.76,2.42,1.6,1.97C-411.14,579.25-410.34,576.85-410.46,574.2z"/>
		<path class="st4" d="M-392.22,559.31c-0.94,0.15-1.88,0.31-2.82,0.46c0.33-5.81-3.21-9.62-6.77-13.6
			c-2.87,5.43-2.87,5.43,2.47,12.36c-0.45,0.11-0.9,0.22-1.36,0.33c-2.08-0.02-1.98-4.87-5.21-2.35c-0.87,0.16-1.75,0.33-2.62,0.49
			c2.12-5.03,1.72-11.11,6.84-14.93c2.2-1.64,0.57-3.53-1.32-4.42c-2.38-1.12-4.92-1.9-7.26-2.78c-0.23-2.19,1.31-1.91,2.3-2.18
			c7.51-2.1,9.64-5.17,9.03-13.13c-0.08-1.11-0.8-2.46,0.46-3.21c1.29-0.77,2.04,0.65,2.98,1.19c6.58,3.8,9.17,3.12,13.62-3.65
			c0.51-0.78,0.79-1.94,2.05-1.66c1.2,0.26,0.87,1.57,1.36,2.28c4.02,5.93,5.7,14.82,16.07,12.94c0.58-0.1,1.67,0.47,1.88,1
			c0.4,0.97-0.29,1.59-1.23,2.21c-9.24,6.09-9.84,7.73-5.77,17.33c1.14,2.69,0.64,3.84-2.2,3.37c-3.5-0.59-6.13,0.08-7.57,3.65
			c-0.93,2.3-2.15,1.45-3.56,0.29C-388.13,549.34-390.33,550.13-392.22,559.31z M-385.52,548.59c2.47,1.2,4.84,3.97,6.34,2.78
			c2.27-1.81,7.37-2.94,6.78-4.47c-2.69-6.96,8.09-15.17-2.09-21.1c-0.38-0.22-0.22-1.32-0.61-1.58c-2.41-1.63-4.33-5.76-7.5-4.09
			c-3.87,2.05-7.67,1.6-11.41,2.32c-2.69,0.52-1.99,7.73-6.25,9.96c-3.03,1.58-1.1,2.53,0.3,4c2.04,2.15,3.99,0.85,5.9,0.27
			c3.42-1.04,7.33-2.46,9.65,0.88C-382.11,540.87-380.07,545.18-385.52,548.59z M-393.12,553.59c2.17-3.87,1-6.99-0.43-10.03
			c-0.62-1.31-0.38-4.06-3.22-2.62c-2.25,1.14-3.23,3.08-1.86,5.31C-397.08,548.76-395.09,551-393.12,553.59z M-390.4,549.52
			c4.3-3.66,7.41-5.33,4.51-9.97c-1.75-2.8-4.15-2.02-5.22-1.17C-395.93,542.25-388.73,544.58-390.4,549.52z"/>
		<path class="st5" d="M-367.8,505.27c0.65-6.71,3.91-12.21,6.49-17.97c0.91-2.03,2.77-3.25,4.66-2.03c1.95,1.26,1.3,3.44,0.04,5.13
			C-360.3,495.38-364.06,500.31-367.8,505.27z"/>
		<path class="st17" d="M-354.06,521.49c5.34-4.43,10.81-5.8,15.75-8.14c1.52-0.72,3.11,0,3.6,1.87c0.58,2.22-0.79,3.36-2.66,3.69
			C-342.49,519.81-347.64,520.51-354.06,521.49z"/>
		<path class="st6" d="M-401.81,506.99c-2.75-3.38-5.59-6.69-8.19-10.18c-0.94-1.26-2.41-3.13-0.34-4.53
			c2.07-1.4,3.55-0.31,4.47,1.89c1.7,4.08,3.51,8.11,5.28,12.16C-400.99,506.54-401.4,506.77-401.81,506.99z"/>
		<path class="st7" d="M-413.55,519.33c-3.37-1.16-6.76-2.25-10.08-3.52c-1.02-0.39-2.28-1.13-1.49-2.61
			c0.65-1.22,1.87-1.42,3.01-0.77c3.11,1.78,6.15,3.66,9.23,5.5C-413.11,518.4-413.33,518.87-413.55,519.33z"/>
		<path class="st8" d="M-356.77,552.97c2.51,1.67,5.04,3.33,7.54,5.03c1.32,0.9,2.74,1.94,1.44,3.71c-1.47,2-2.78,0.4-3.79-0.62
			c-2.13-2.15-4.1-4.46-6.14-6.71C-357.41,553.91-357.09,553.44-356.77,552.97z"/>
		<path class="st18" d="M-348.26,533.94c3.51-2.15,6.58-1.41,9.54-1.46c1-0.02,2.02,0.41,2.01,1.56c-0.02,1.31-0.87,2.19-2.26,1.93
			C-341.86,535.42-344.71,534.73-348.26,533.94z"/>
		<path class="st4" d="M-387.66,563.06c-1-0.15-1.51-0.82-1.79-1.71C-388.57,561.63-387.84,562.06-387.66,563.06z"/>
		<path class="st4" d="M-391.04,560.33c-0.39-0.34-0.79-0.68-1.18-1.02C-391.83,559.64-391.44,559.98-391.04,560.33z"/>
		<path class="st4" d="M-389.62,561.21c-0.4-0.26-0.8-0.51-1.21-0.77C-390.43,560.69-390.03,560.95-389.62,561.21z"/>
		<path class="st9" d="M-449.48,635.07c-3.53-4.34-2.27-9.24-1.96-13.82c1.06-15.43,8.06-27.46,21.39-35.63
			c1.55-0.95,3.14-1.57,4.9-1.79c1.58-0.2,2.56,0.84,3.31,2.01c0.85,1.33,0.41,2.69-0.46,3.8c-0.58,0.74-1.43,1.34-2.28,1.79
			C-441.96,600.72-450.26,615.16-449.48,635.07z"/>
		<path class="st10" d="M-399.34,558.54c-5.33-6.93-5.33-6.93-2.47-12.36c3.55,3.98,7.09,7.79,6.77,13.6
			c-0.47,2.03-1.85,0.78-2.88,0.79c0,0,0.04,0.06,0.04,0.06c-0.25-0.75-0.25-1.91-1.54-0.94l0.13,0.08
			C-399.3,559.36-399.32,558.95-399.34,558.54z"/>
		<path class="st11" d="M-405.9,556.52c3.22-2.52,3.13,2.33,5.21,2.35c0.21,0.7,0.55,1.21,1.41,0.9c0,0-0.13-0.08-0.13-0.08
			c0.28,0.7,0.21,1.98,1.54,0.94c0,0-0.05-0.06-0.04-0.06c-0.05,3.86-1.86,4.29-4.8,2.45C-405.11,561.52-405.74,559.13-405.9,556.52
			z"/>
		<path class="st12" d="M-410.46,574.2c0.11,2.65-0.69,5.04-3.09,6.33c-0.83,0.45-1.71-1-1.6-1.97c0.27-2.39-0.79-5.46,2.1-6.77
			C-411.7,571.19-410.62,572.58-410.46,574.2z"/>
		<path class="st13" d="M-409.83,567.48c0.67,0.2,1.64,0.56,1.23,1.26c-0.46,0.8-1.5,0.8-2.27,0.02
			C-410.52,568.34-410.18,567.91-409.83,567.48z"/>
		<path class="st14" d="M-385.52,548.59c5.45-3.41,3.42-7.72,1.12-11.02c-2.33-3.34-6.24-1.92-9.65-0.88
			c-1.91,0.58-3.86,1.88-5.9-0.27c-1.39-1.47-3.33-2.42-0.3-4c4.27-2.23,3.56-9.44,6.25-9.96c3.74-0.72,7.54-0.27,11.41-2.32
			c3.17-1.67,5.08,2.45,7.5,4.09c0.38,0.26,0.23,1.36,0.61,1.58c10.18,5.93-0.6,14.13,2.09,21.1c0.59,1.52-4.52,2.66-6.78,4.47
			C-380.68,552.56-383.05,549.79-385.52,548.59z"/>
		<path class="st15" d="M-393.12,553.59c-1.97-2.58-3.96-4.82-5.51-7.34c-1.37-2.23-0.39-4.17,1.86-5.31
			c2.84-1.43,2.61,1.31,3.22,2.62C-392.12,546.59-390.95,549.72-393.12,553.59z"/>
		<path class="st15" d="M-390.4,549.52c1.66-4.94-5.54-7.27-0.71-11.14c1.06-0.85,3.47-1.63,5.22,1.17
			C-382.98,544.19-386.1,545.86-390.4,549.52z"/>
		<path class="st16" d="M-399.28,559.77c-0.86,0.31-1.2-0.2-1.41-0.9c0.45-0.11,0.9-0.22,1.36-0.33
			C-399.32,558.95-399.3,559.36-399.28,559.77z"/>
		<path class="st16" d="M-397.87,560.63c-1.34,1.04-1.26-0.24-1.54-0.94C-398.12,558.72-398.12,559.87-397.87,560.63z"/>
	</g>
	<g>
		<path class="st19" d="M-520.54,570.1c0.26,0.88,1.27,1.13,2.2,0.55c2.82,0.69,5.02-1.91,7.81-1.61c-1.1,9.05-1.1,9.05,6.13,14.39
			c0.31,0.23,0.65,0.44,0.96,0.67c21.86,15.99,27.2,45.26,12.8,70.16c-12.53,21.67-42.97,30.94-66.28,20.18
			c-20.66-9.54-33.1-30.84-31.03-53.12c2.1-22.48,17.85-40.86,40.22-46.43c3.26-0.81,4.17-2.17,4.81-5.25
			c0.7-3.36-0.68-7.63,3.32-9.93c1.01,0.09,1.65-0.44,2.14-1.25c0,0,0.2-0.09,0.2-0.09c0.45-0.16,0.9-0.31,1.35-0.47
			c0,0,0.23-0.06,0.23-0.06c0.46-0.24,0.92-0.48,1.38-0.72c0,0-0.01,0.01-0.01,0.01c0.88,0.37,1.76,0.74,2.64,1.1
			c-0.01,2.08,1.62,1.19,2.61,1.44c-0.85,3.76,0.81,4.61,4.1,3.5c2.68-0.9,3.85-3.08,4.61-5.58c0.81,0.36,1.62,0.73,2.43,1.09
			c2.17,1.44,5.77,1.89,5.36,5.35c-0.36,3.05-3.37,4-5.97,4.93c-0.18,0.07-0.37,0.14-0.55,0.21
			C-519.75,569.2-520.77,569.32-520.54,570.1z M-491.08,631.12c2.56-15.25-1.45-28.58-12.52-39.63c-1.29-1.29-2.69-2.26-4.35-2.88
			c-1.49-0.56-2.69,0.22-3.69,1.19c-1.14,1.09-1.02,2.52-0.44,3.8c0.39,0.86,1.08,1.64,1.8,2.27
			c14.76,13.08,19.47,29.06,14.08,48.24C-491.75,640.7-491.84,635.64-491.08,631.12z M-518.47,582.71c0.71,0.63,1.89-0.58,2.01-1.54
			c0.29-2.39,2.04-5.12-0.47-7.07c-1.16-0.9-2.54,0.2-3.07,1.74C-520.73,578.38-520.51,580.9-518.47,582.71z"/>
		<path class="st20" d="M-544.41,550.57c-1.64,0.8-3.03,1.34-3.4-1.11c-0.57-3.81-2.98-5.06-6.52-5.31
			c-2.88-0.2-3.09-1.44-1.36-3.79c6.18-8.39,5.99-10.12-1.58-18.2c-0.77-0.82-1.29-1.59-0.68-2.44c0.33-0.46,1.53-0.77,2.06-0.53
			c9.65,4.24,13.35-4.01,18.63-8.85c0.64-0.59,0.63-1.93,1.85-1.91c1.29,0.03,1.29,1.22,1.61,2.09c2.76,7.62,5.11,8.89,12.4,6.72
			c1.04-0.31,2.1-1.52,3.17-0.47c1.05,1.02,0.04,2.16-0.3,3.23c-2.44,7.6-1.08,11.08,5.74,14.87c0.9,0.5,2.46,0.58,1.73,2.66
			c-2.48,0.31-5.13,0.48-7.71,1.02c-2.04,0.43-4.07,1.88-2.31,3.99c4.09,4.91,2.29,10.73,3.18,16.11c-0.81-0.36-1.62-0.73-2.43-1.09
			c-2.55-3.2-3.58,1.54-5.61,1.07c-0.41-0.21-0.83-0.43-1.24-0.64c6.8-5.5,6.8-5.5,5.27-11.45c-4.38,3.04-8.71,5.93-9.74,11.65
			c-0.88-0.37-1.76-0.74-2.64-1.1C-533.99,547.74-535.94,546.46-544.41,550.57z M-536.83,534.15c3.04-2.71,6.51-0.42,9.59,1.39
			c1.73,1.01,3.32,2.72,5.8,1.11c1.7-1.1,3.8-1.58,1.22-3.82c-3.63-3.16-1.27-10.01-3.77-11.14c-3.47-1.57-7.27-2.01-10.56-4.91
			c-2.69-2.36-5.51,1.2-8.24,2.23c-0.43,0.16-0.54,1.27-0.96,1.39c-11.28,3.4-2.7,13.89-6.94,20.03c-0.93,1.35,3.78,3.64,5.56,5.92
			c1.18,1.51,4.13-0.64,6.81-1.23C-542.81,540.55-539.83,536.83-536.83,534.15z M-525.01,545.89c1.85-1.85,1.35-3.97-0.57-5.59
			c-2.43-2.06-2.84,0.66-3.74,1.8c-2.09,2.62-3.95,5.39-2.75,9.66C-529.56,549.7-527.1,547.98-525.01,545.89z M-530.5,536.5
			c-0.84-1.07-2.99-2.39-5.34-0.08c-3.9,3.84-1.26,6.18,2.07,10.74C-534.25,541.97-526.7,541.38-530.5,536.5z"/>
		<path class="st21" d="M-545.47,498.87c0.93-6.68-0.96-12.78-2.14-18.99c-0.41-2.18-1.94-3.8-4.06-3.06
			c-2.18,0.77-2.07,3.04-1.24,4.98C-550.46,487.51-547.96,493.19-545.47,498.87z"/>
		<path class="st22" d="M-562.6,511.46c-4.17-5.55-9.17-8.15-13.42-11.57c-1.31-1.05-3.02-0.72-3.93,0.98
			c-1.09,2.03-0.01,3.45,1.73,4.2C-573.47,507.13-568.62,509.02-562.6,511.46z"/>
		<path class="st23" d="M-512.8,508.45c3.46-2.65,7-5.21,10.33-8c1.21-1.01,3.07-2.49,1.38-4.33c-1.69-1.84-3.38-1.13-4.78,0.8
			c-2.6,3.57-5.3,7.07-7.96,10.6C-513.48,507.83-513.14,508.14-512.8,508.45z"/>
		<path class="st24" d="M-504.24,523.19c3.54-0.35,7.1-0.62,10.63-1.08c1.08-0.14,2.48-0.57,2.06-2.19
			c-0.35-1.34-1.49-1.82-2.75-1.45c-3.43,1.01-6.84,2.13-10.25,3.21C-504.45,522.17-504.34,522.68-504.24,523.19z"/>
		<path class="st25" d="M-567.28,542.71c-2.83,1.04-5.67,2.07-8.5,3.14c-1.49,0.56-3.12,1.25-2.26,3.28
			c0.97,2.29,2.61,1.03,3.83,0.28c2.57-1.59,5.03-3.39,7.53-5.1C-566.88,543.77-567.08,543.24-567.28,542.71z"/>
		<path class="st26" d="M-571.14,522.22c-2.91-2.91-6.07-2.9-8.94-3.64c-0.97-0.25-2.06-0.07-2.32,1.05
			c-0.29,1.28,0.34,2.33,1.75,2.4C-577.71,522.17-574.77,522.16-571.14,522.22z"/>
		<path class="st20" d="M-539.59,559.7c1.01,0.09,1.65-0.44,2.14-1.25C-538.36,558.52-539.18,558.77-539.59,559.7z"/>
		<path class="st20" d="M-535.66,557.83c0.46-0.24,0.92-0.48,1.38-0.72C-534.74,557.34-535.2,557.59-535.66,557.83z"/>
		<path class="st20" d="M-537.24,558.35c0.45-0.16,0.9-0.31,1.35-0.47C-536.34,558.04-536.79,558.2-537.24,558.35z"/>
		<path class="st27" d="M-496.19,644.1c4.44-3.41,4.36-8.46,5.11-12.98c2.56-15.25-1.45-28.58-12.52-39.63
			c-1.29-1.29-2.69-2.26-4.35-2.88c-1.49-0.56-2.69,0.22-3.69,1.19c-1.14,1.09-1.02,2.52-0.44,3.8c0.39,0.86,1.08,1.64,1.8,2.27
			C-495.52,608.95-490.81,624.92-496.19,644.1z"/>
		<path class="st28" d="M-527.18,558.01c6.8-5.5,6.8-5.5,5.27-11.45c-4.38,3.04-8.71,5.93-9.74,11.65
			c-0.01,2.08,1.62,1.19,2.61,1.44c0,0-0.06,0.05-0.06,0.05c0.41-0.67,0.69-1.8,1.72-0.55l-0.14,0.05
			C-527.4,558.8-527.29,558.41-527.18,558.01z"/>
		<path class="st29" d="M-520.33,557.58c-2.55-3.2-3.58,1.54-5.61,1.07c-0.37,0.63-0.82,1.05-1.58,0.55c0,0,0.14-0.05,0.14-0.05
			c-0.43,0.62-0.66,1.88-1.72,0.55c0,0,0.06-0.05,0.06-0.05c-0.85,3.76,0.81,4.61,4.1,3.5
			C-522.26,562.25-521.08,560.08-520.33,557.58z"/>
		<path class="st30" d="M-520,575.83c-0.72,2.55-0.51,5.07,1.53,6.88c0.71,0.63,1.89-0.58,2.01-1.54c0.29-2.39,2.04-5.12-0.47-7.07
			C-518.09,573.19-519.47,574.29-520,575.83z"/>
		<path class="st31" d="M-519.05,569.15c-0.7,0.04-1.72,0.17-1.49,0.94c0.26,0.88,1.27,1.13,2.2,0.55
			C-518.58,570.15-518.81,569.65-519.05,569.15z"/>
		<path class="st32" d="M-538.3,545.13c-4.51-4.58-1.53-8.3,1.47-10.98c3.04-2.71,6.51-0.42,9.59,1.39c1.73,1.01,3.32,2.72,5.8,1.11
			c1.7-1.1,3.8-1.58,1.22-3.82c-3.63-3.16-1.27-10.01-3.77-11.14c-3.47-1.57-7.27-2.01-10.56-4.91c-2.69-2.36-5.51,1.2-8.24,2.23
			c-0.43,0.16-0.54,1.27-0.96,1.39c-11.28,3.4-2.7,13.89-6.94,20.03c-0.93,1.35,3.78,3.64,5.56,5.92
			C-543.94,547.87-540.99,545.72-538.3,545.13z"/>
		<path class="st33" d="M-532.07,551.75c2.51-2.05,4.98-3.77,7.06-5.86c1.85-1.85,1.35-3.97-0.57-5.59
			c-2.43-2.06-2.84,0.66-3.74,1.8C-531.42,544.72-533.28,547.49-532.07,551.75z"/>
		<path class="st33" d="M-533.78,547.17c-0.47-5.2,7.08-5.78,3.27-10.67c-0.84-1.07-2.99-2.39-5.34-0.08
			C-539.75,540.26-537.1,542.61-533.78,547.17z"/>
		<path class="st34" d="M-527.51,559.2c0.76,0.51,1.21,0.09,1.58-0.55c-0.41-0.21-0.83-0.43-1.24-0.64
			C-527.29,558.41-527.4,558.8-527.51,559.2z"/>
		<path class="st34" d="M-529.09,559.7c1.06,1.33,1.28,0.06,1.72-0.55C-528.4,557.9-528.67,559.03-529.09,559.7z"/>
	</g>
</g>
<g>
	<path class="st35" d="M1594.04,449.15c-5.16,0-9.41-0.88-12.74-2.62c-3.34-1.74-5.83-4.11-7.46-7.11c-1.63-3-2.45-6.35-2.45-10.07
		c0-3.8,0.81-7.59,2.45-11.38c1.63-3.79,3.93-7.17,6.89-10.13c2.96-2.96,6.45-4.97,10.47-6.03c-2.51-1.29-4.67-3.01-6.49-5.18
		c-1.82-2.16-2.73-4.64-2.73-7.46c0-5.16,1.42-9.67,4.27-13.54c2.84-3.87,6.58-6.9,11.21-9.1c4.63-2.2,9.64-3.3,15.02-3.3
		c3.57,0,6.85,0.82,9.85,2.45c3,1.63,5.33,3.89,7,6.77l-9.34,10.47c-0.99-0.91-1.88-1.69-2.67-2.33c-0.8-0.64-1.84-1.16-3.13-1.54
		c-1.29-0.38-3.19-0.57-5.69-0.57c-3.03,0-5.29,0.99-6.77,2.96c-1.48,1.97-2.22,4.29-2.22,6.94c0,2.96,0.83,5.45,2.5,7.46
		c1.67,2.01,4.02,3.01,7.06,3.01h1.14c0.23,0,0.45-0.02,0.68-0.06c0.23-0.04,0.46-0.09,0.69-0.17c0-0.68,0.04-1.18,0.11-1.48
		c0.08-0.23,0.12-0.46,0.12-0.69c0-0.23,0.04-0.49,0.12-0.8c0-0.68,0.04-1.18,0.11-1.48c1.52,0,2.98-0.02,4.38-0.06
		c1.4-0.04,2.75-0.09,4.04-0.17c1.29-0.07,2.62-0.15,3.98-0.23c1.37-0.07,2.77-0.15,4.21-0.23c-0.15,0.45-0.23,1.02-0.23,1.71v2.84
		c0.83,0,1.97-0.15,3.41-0.45s3.03-0.64,4.78-1.02l1.25,11.61c-2.05,0.31-3.91,0.59-5.58,0.86c-1.67,0.26-2.81,0.4-3.42,0.4
		c0,7.51-1.13,14.26-3.41,20.26c-2.27,6-5.96,10.74-11.04,14.23C1609.33,447.4,1602.54,449.15,1594.04,449.15z M1597.8,434.8
		c2.73,0,4.91-0.91,6.54-2.73c1.63-1.82,2.89-4.09,3.76-6.83c0.87-2.73,1.5-5.5,1.88-8.31c0.38-2.81,0.64-5.16,0.8-7.06
		c-7.44,0.53-12.84,2.41-16.22,5.64c-3.38,3.22-5.07,6.92-5.07,11.1c0,2.43,0.74,4.4,2.22,5.92
		C1593.19,434.05,1595.22,434.8,1597.8,434.8z"/>
	<g>
		<path class="st2" d="M1384.22,164.86c0,0-46.27,278.32-23.13,334.77c1.74,4.25,3.34,6.53,4.86,7.08
			c8.93,3.26,15.17-53.01,31.97-119.61c3.22-12.76,6.82-25.89,10.91-39.06c19.22-61.96,49.08-124.66,99.26-152.11
			C1534.69,181.42,1386.48,150.78,1384.22,164.86z"/>
		<path class="st2" d="M1425.35,465.88c-32.36,12.99-59.4,40.83-59.4,40.83l42.88-158.67
			C1408.83,348.04,1451.69,455.31,1425.35,465.88z"/>
	</g>
	<path class="st35" d="M1081.37,430.16c3.36-10.33,6.64-22.13,9.85-35.38c3.22-13.27,6.27-26.8,9.19-40.62
		c2.9-13.81,5.62-26.65,8.14-38.52c2.53-11.87,4.55-21.7,6.1-29.46c2.82-14.47,5.58-29.1,8.3-43.91c2.72-14.79,5.39-29.85,8.02-45.2
		l109.2-2.3l-10.63,39.76l-51.1-1.52l-11.81,57.64c3.48-0.11,6.79-0.13,9.93-0.04c3.15,0.09,6.24,0.19,9.28,0.28l15.3,0.45
		c2.6,0.08,4.87,0.14,6.83,0.2c1.95,0.06,3.69,0,5.21-0.16c-0.3,3.03-0.72,6-1.25,8.91c-0.52,2.93-1.04,5.89-1.56,8.91l-3.45,17.49
		c-4.56-0.14-11.12-0.49-19.68-1.07c-8.56-0.57-17.61-1.11-27.15-1.61l-17.83,95.57c-3.7,0.54-7.36,1.08-10.96,1.62
		c-3.6,0.56-7.26,1.2-10.97,1.95c-6.11,0.92-12.77,2.02-19.97,3.32C1093.17,427.79,1086.84,429.03,1081.37,430.16z"/>
	<path class="st35" d="M1211.59,430.43c2.89-17.07,5.95-34.24,9.18-51.52c3.23-17.28,6.55-33.95,9.96-50.04
		c3.42-16.08,6.62-30.6,9.6-43.54c3.24-14.01,6.49-28.25,9.74-42.71c3.25-14.44,6.61-29.01,10.1-43.67l57.17-5.81l-19.11,73.05
		c-3.41,12.72-6.92,26.35-10.49,40.9c-3.59,14.55-6.88,28.63-9.88,42.23c-3.01,13.59-5.44,25.67-7.27,36.26
		c5.43-0.28,11.25-0.37,17.44-0.29c6.19,0.08,11.66,0.17,16.44,0.32c0.06,5,0.34,10.27,0.83,15.83s1.04,10.36,1.69,14.39
		c0.64,4.04,0.95,6.27,0.94,6.7c-0.87-0.03-1.68-0.05-2.44-0.07c-0.77-0.02-1.59-0.15-2.44-0.39l-5.2-0.15
		c-8.46-0.25-17.86-0.15-28.19,0.3s-20.56,1.34-30.7,2.67C1228.81,426.22,1219.69,428.07,1211.59,430.43z"/>
	<path class="st35" d="M1490.64,425.38c7.4-29.14,14.44-57.64,21.13-85.49c2.72-11.23,5.54-23.26,8.41-36.12
		c2.88-12.86,5.82-25.87,8.83-39.05c2.99-13.17,5.75-25.64,8.28-37.42c2.53-11.78,4.57-22.1,6.14-30.97
		c8.78-2.35,18.24-4.46,28.41-6.34c10.17-1.87,19.27-2.69,27.31-2.45c13.04,0.39,23.27,3.46,30.72,9.23
		c7.43,5.77,12.65,13.37,15.64,22.8c2.98,9.45,4.31,19.71,3.98,30.78c-0.36,12.17-2.95,23.79-7.72,34.84
		c-4.79,11.06-11.07,20.93-18.82,29.62s-16.56,15.49-26.37,20.41c-9.84,4.92-19.95,7.24-30.39,6.93l-3.58-0.11
		c-1.96,7.33-3.83,15.32-5.61,23.98c-1.77,8.64-3.32,16.64-4.63,23.99c-0.99,4.32-1.88,8.65-2.67,12.97
		c-0.78,4.33-1.56,8.66-2.34,12.98L1490.64,425.38z M1570.13,308.02c5.04-1.15,10.14-4.3,15.29-9.49c5.16-5.17,9.48-11.84,12.99-20
		c3.51-8.16,5.41-17.13,5.7-26.91c0.24-8.04-1.38-14.18-4.84-18.41c-3.46-4.23-7.36-6.42-11.71-6.55
		c-2.83,14.26-5.62,27.77-8.38,40.53S1573.38,293.56,1570.13,308.02z"/>
	<path class="st35" d="M1040.69,736.45c-9.11-0.44-17.57-1.61-25.39-3.46c13.93-42.53,25.47-85.5,34.6-128.88
		c9.15-43.38,18.01-87.1,26.57-131.12c12.94-2.08,26.35-3.84,40.25-5.26c13.89-1.42,28.24-1.78,43.02-1.06
		c8.13,0.4,16.68,2.23,25.65,5.51c8.97,3.27,16.43,8.7,22.36,16.26c5.93,7.58,8.57,18.02,7.93,31.31
		c-0.6,12.33-3.74,23.53-9.41,33.62s-12.65,18.65-20.88,25.66c-8.24,7-16.63,11.91-25.16,14.71c3.38,1.88,7.28,5.16,11.75,9.82
		c4.46,4.66,8.25,10.77,11.33,18.33c3.1,7.55,4.38,16.63,3.86,27.23c-0.72,14.78-5.74,27.93-15.06,39.45
		c-9.33,11.53-21.45,20.87-36.37,28.06c-14.41,7.2-29.86,12.49-46.32,15.89C1072.93,735.92,1056.7,737.23,1040.69,736.45z
		 M1091.24,664.08c4.96-0.24,10.41-0.85,16.39-1.8c5.97-0.95,11.73-2.58,17.27-4.9s10.2-5.55,13.99-9.69
		c3.77-4.13,5.83-9.29,6.13-15.44c0.29-5.92-1.47-10.7-5.24-14.33c-3.77-3.65-8.39-6.39-13.86-8.27
		c-5.46-1.86-10.66-2.93-15.58-3.17l-2.96-0.14c-1.23-0.06-2.22,0.03-2.98,0.23c-1.92,9.04-4.11,18.56-6.57,28.57
		C1095.37,645.15,1093.18,654.8,1091.24,664.08z M1115.14,561.16c7.69-1.1,15.07-2.72,22.09-4.85c7.01-2.12,12.75-4.69,17.22-7.68
		c4.46-2.99,6.79-6.33,6.97-10.03c0.23-4.68-1.44-8.46-5.01-11.37c-3.55-2.89-7.89-5.07-13-6.55c-5.11-1.48-9.89-2.33-14.33-2.55
		l-3.7-0.18c-2.19,9.78-4.22,18.26-6.04,25.45C1117.51,550.6,1116.11,556.52,1115.14,561.16z"/>
	<path class="st35" d="M1642.25,709.44c-0.49-2-4.18-20.4-11.07-55.19c-1.88-8.87-3.63-17.8-5.29-26.77
		c-1.65-8.96-3.04-16.92-4.22-23.89c-1.16-6.96-1.74-11.64-1.77-14.04l-4.86-0.41l0.32,121.31c-7.11-1.02-13.36-1.93-18.73-2.71
		c-5.39-0.77-11.85-1.59-19.42-2.43c-5.39-24.21-11.1-46.37-17.16-66.5c-6.05-20.11-11.1-38.63-15.14-55.53l-2.92-0.24
		c0.85,8.13,1.52,18.49,1.98,31.06c0.48,12.57,0.9,25.86,1.25,39.83c0.36,13.99,0.48,25.65,0.35,35.02
		c-0.13,9.35-0.21,14.26-0.24,14.68l-55.66-14.78c0-12.86-0.01-25.89,0.01-39.07s-0.07-26.55-0.26-40.08
		c-0.17-13.52-0.48-28.75-0.92-45.68c-0.43-16.93-1.13-34.75-2.08-53.47c-0.94-18.72-2.17-37.28-3.67-55.73
		c5.33,1.32,11.69,2.95,19.04,4.86c7.36,1.92,14.62,3.67,21.79,5.25s13.34,2.8,18.49,3.67c2.34,5.86,5.25,14.17,8.71,24.93
		c3.47,10.75,6.61,21.36,9.45,31.84c2.01,7.15,4.62,16.36,7.81,27.63c3.21,11.27,7.26,25.4,12.16,42.38l4.23,0.35
		c-1.22-14.27-2.17-27.48-2.9-39.65c-0.73-12.15-1.25-21.63-1.55-28.41c-0.15-3.48-0.4-6.95-0.77-10.36s-0.63-6.76-0.8-10.03
		c-0.16-3.29-0.32-6.52-0.49-9.69c-0.17-3.18-0.35-6.3-0.53-9.37l-0.61-16.07c6.03,0.94,11.87,1.98,17.55,3.1
		c5.69,1.13,11.21,2.24,16.56,3.34c10.5,2.19,21.7,3.78,33.6,4.78c1.6,9.51,3.65,20.35,6.1,32.54c2.48,12.21,5.12,24.91,7.94,38.1
		c2.82,13.21,5.65,26.36,8.48,39.46c2.83,13.09,5.6,25.43,8.35,36.98c6.36,28.22,13.08,57.22,20.19,87.03L1642.25,709.44z"/>
	<g>
		<path class="st35" d="M1408.66,562.04c-0.16-0.12-0.31-0.24-0.47-0.35c-2.24-1.62-4.87-3.36-4.36-6.39
			c0.57-3.44,4.15-2.88,6.64-3.65c0.88-0.12,1.76-0.25,2.64-0.37c0.03,2.61,0.56,5.03,2.87,6.64c2.85,1.98,4.68,1.63,4.91-2.22
			c1.03,0.03,2.34,1.34,2.91-0.66c0.95-0.11,1.89-0.22,2.84-0.33c0,0,0-0.01,0-0.01c0.38,0.36,0.75,0.72,1.13,1.08
			c0,0,0.21,0.12,0.21,0.12c0.39,0.27,0.78,0.55,1.17,0.82c0,0,0.17,0.15,0.17,0.15c0.24,0.91,0.72,1.6,1.71,1.79
			c3.2,3.32,0.69,7.04,0.43,10.46c-0.24,3.14,0.26,4.69,3.16,6.38c19.94,11.56,29.97,33.6,25.73,55.77
			c-4.2,21.98-22.06,38.98-44.57,42.41c-25.38,3.86-52.05-13.5-58.06-37.8c-6.91-27.91,6.35-54.55,31.79-63.84
			c0.37-0.13,0.75-0.24,1.11-0.38c8.43-3.12,8.43-3.12,9.89-12.12c2.76,0.49,4.15,3.6,7.06,3.72c0.74,0.82,1.77,0.86,2.27,0.09
			C1410.26,562.68,1409.31,562.28,1408.66,562.04z M1365.87,627.69c0.16-19.92,9.12-33.96,26.93-42.42
			c0.86-0.41,1.74-0.97,2.36-1.68c0.92-1.06,1.42-2.41,0.64-3.77c-0.69-1.2-1.62-2.29-3.21-2.16c-1.77,0.14-3.38,0.68-4.98,1.56
			c-13.7,7.54-21.26,19.23-23.04,34.59C1364.04,618.35,1362.55,623.18,1365.87,627.69z M1407.71,568.72
			c-0.08-1.63-1.1-3.07-2.46-2.53c-2.96,1.18-2.04,4.29-2.42,6.66c-0.16,0.96,0.65,2.45,1.5,2.04
			C1406.79,573.73,1407.7,571.38,1407.71,568.72z"/>
		<path class="st35" d="M1426.63,554.71c-0.95,0.11-1.89,0.22-2.84,0.33c0.6-5.78-2.76-9.76-6.12-13.9
			c-3.12,5.29-3.12,5.29,1.88,12.46c-0.46,0.09-0.91,0.18-1.37,0.27c-2.08-0.12-1.75-4.95-5.09-2.59c-0.88,0.12-1.76,0.25-2.64,0.37
			c2.35-4.93,2.24-11.02,7.53-14.6c2.27-1.54,0.73-3.5-1.11-4.47c-2.32-1.23-4.82-2.13-7.12-3.12c-0.13-2.2,1.4-1.84,2.4-2.07
			c7.6-1.75,9.87-4.71,9.64-12.69c-0.03-1.12-0.68-2.49,0.61-3.18c1.32-0.71,2,0.74,2.92,1.33c6.4,4.11,9.01,3.54,13.78-3.01
			c0.55-0.75,0.88-1.9,2.13-1.56c1.18,0.31,0.8,1.61,1.25,2.35c3.74,6.11,5,15.07,15.44,13.68c0.58-0.08,1.64,0.55,1.83,1.08
			c0.35,0.98-0.37,1.58-1.34,2.15c-9.52,5.65-10.19,7.26-6.58,17.04c1.01,2.74,0.46,3.87-2.35,3.26c-3.47-0.75-6.13-0.21-7.73,3.29
			c-1.03,2.25-2.22,1.35-3.57,0.12C1431.19,544.94,1428.95,545.63,1426.63,554.71z M1433.83,544.31c2.42,1.32,4.65,4.2,6.2,3.08
			c2.35-1.7,7.5-2.59,6.99-4.14c-2.36-7.08,8.79-14.77-1.1-21.17c-0.37-0.24-0.16-1.33-0.53-1.61c-2.33-1.75-4.06-5.96-7.3-4.43
			c-3.97,1.87-7.73,1.24-11.51,1.78c-2.71,0.39-2.35,7.63-6.71,9.65c-3.1,1.44-1.21,2.48,0.11,4.01c1.94,2.25,3.94,1.04,5.88,0.55
			c3.46-0.88,7.44-2.11,9.6,1.33C1437.6,536.76,1439.43,541.17,1433.83,544.31z M1426,548.95c2.35-3.76,1.32-6.94,0.05-10.04
			c-0.55-1.34-0.19-4.07-3.1-2.77c-2.3,1.03-3.37,2.92-2.11,5.21C1422.27,543.94,1424.16,546.28,1426,548.95z M1428.91,545.01
			c4.46-3.46,7.65-4.98,4.97-9.74c-1.62-2.88-4.05-2.21-5.16-1.41C1423.72,537.49,1430.81,540.15,1428.91,545.01z"/>
		<path class="st35" d="M1453.57,501.87c0.96-6.67,4.48-12.01,7.33-17.65c1-1.98,2.92-3.11,4.75-1.81c1.89,1.35,1.14,3.5-0.2,5.13
			C1461.52,492.35,1457.53,497.1,1453.57,501.87z"/>
		<path class="st35" d="M1466.53,518.72c5.55-4.18,11.07-5.28,16.11-7.39c1.55-0.65,3.1,0.14,3.51,2.04
			c0.48,2.25-0.95,3.32-2.83,3.56C1478.16,517.59,1472.98,518.05,1466.53,518.72z"/>
		<path class="st35" d="M1419.52,502c-2.58-3.51-5.27-6.94-7.7-10.56c-0.88-1.31-2.26-3.24-0.12-4.54c2.14-1.3,3.56-0.14,4.37,2.1
			c1.5,4.15,3.13,8.26,4.7,12.39C1420.35,501.59,1419.93,501.79,1419.52,502z"/>
		<path class="st35" d="M1407.2,513.77c-3.31-1.32-6.65-2.57-9.91-4c-1-0.44-2.22-1.24-1.37-2.68c0.71-1.19,1.93-1.34,3.05-0.63
			c3.02,1.92,5.98,3.95,8.96,5.93C1407.69,512.86,1407.44,513.31,1407.2,513.77z"/>
		<path class="st35" d="M1462.34,550.04c2.43,1.79,4.88,3.56,7.29,5.37c1.27,0.96,2.64,2.07,1.26,3.78
			c-1.57,1.93-2.79,0.27-3.75-0.8c-2.03-2.25-3.89-4.65-5.82-6.99C1461.66,550.95,1462,550.5,1462.34,550.04z"/>
		<path class="st35" d="M1471.74,531.43c3.6-1.98,6.64-1.1,9.6-1.01c1,0.03,2,0.51,1.93,1.66c-0.08,1.31-0.98,2.15-2.35,1.82
			C1478.06,533.21,1475.24,532.38,1471.74,531.43z"/>
		<path class="st35" d="M1431.01,558.67c-0.99-0.2-1.47-0.89-1.71-1.79C1430.17,557.19,1430.88,557.66,1431.01,558.67z"/>
		<path class="st35" d="M1427.76,555.78c-0.38-0.36-0.75-0.72-1.13-1.08C1427.01,555.06,1427.38,555.42,1427.76,555.78z"/>
		<path class="st35" d="M1429.13,556.72c-0.39-0.27-0.78-0.55-1.17-0.82C1428.35,556.17,1428.74,556.45,1429.13,556.72z"/>
		<path class="st35" d="M1365.87,627.69c-3.32-4.5-1.83-9.34-1.3-13.89c1.78-15.36,9.34-27.05,23.04-34.59
			c1.6-0.88,3.21-1.42,4.98-1.56c1.59-0.12,2.52,0.96,3.21,2.16c0.79,1.37,0.28,2.71-0.64,3.77c-0.61,0.71-1.49,1.27-2.36,1.68
			C1375,593.73,1366.03,607.77,1365.87,627.69z"/>
		<path class="st35" d="M1419.56,553.6c-5-7.17-5-7.17-1.88-12.46c3.36,4.14,6.72,8.12,6.12,13.9c-0.57,2-1.88,0.69-2.91,0.66
			c0,0,0.04,0.06,0.04,0.06c-0.21-0.76-0.16-1.92-1.5-1.01l0.13,0.08C1419.55,554.42,1419.56,554.01,1419.56,553.6z"/>
		<path class="st35" d="M1413.1,551.28c3.34-2.37,3.01,2.47,5.09,2.59c0.18,0.71,0.49,1.24,1.37,0.96c0,0-0.13-0.08-0.13-0.08
			c0.25,0.71,0.11,1.99,1.5,1.01c0,0-0.04-0.06-0.04-0.06c-0.23,3.85-2.06,4.2-4.91,2.22
			C1413.65,556.31,1413.13,553.89,1413.1,551.28z"/>
		<path class="st35" d="M1407.71,568.72c-0.01,2.65-0.92,5.01-3.38,6.18c-0.85,0.41-1.66-1.08-1.5-2.04
			c0.38-2.38-0.54-5.49,2.42-6.66C1406.62,565.65,1407.63,567.09,1407.71,568.72z"/>
		<path class="st35" d="M1408.66,562.04c0.66,0.24,1.61,0.64,1.17,1.32c-0.5,0.78-1.53,0.73-2.27-0.09
			C1407.92,562.87,1408.29,562.46,1408.66,562.04z"/>
		<path class="st35" d="M1433.83,544.31c5.6-3.15,3.77-7.55,1.63-10.95c-2.17-3.44-6.14-2.21-9.6-1.33
			c-1.94,0.49-3.95,1.7-5.88-0.55c-1.32-1.53-3.21-2.57-0.11-4.01c4.37-2.02,4-9.26,6.71-9.65c3.77-0.54,7.54,0.09,11.51-1.78
			c3.24-1.52,4.96,2.69,7.3,4.43c0.37,0.28,0.16,1.37,0.53,1.61c9.89,6.4-1.27,14.09,1.1,21.17c0.52,1.55-4.64,2.44-6.99,4.14
			C1438.48,548.51,1436.24,545.63,1433.83,544.31z"/>
		<path class="st35" d="M1426,548.95c-1.84-2.67-3.73-5.01-5.16-7.59c-1.26-2.29-0.19-4.19,2.11-5.21c2.91-1.3,2.54,1.43,3.1,2.77
			C1427.32,542.01,1428.35,545.18,1426,548.95z"/>
		<path class="st35" d="M1428.91,545.01c1.89-4.86-5.19-7.52-0.18-11.16c1.1-0.8,3.54-1.46,5.16,1.41
			C1436.57,540.04,1433.38,541.56,1428.91,545.01z"/>
		<path class="st35" d="M1419.55,554.83c-0.88,0.27-1.19-0.25-1.37-0.96c0.46-0.09,0.91-0.18,1.37-0.27
			C1419.56,554.01,1419.55,554.42,1419.55,554.83z"/>
		<path class="st35" d="M1420.92,555.76c-1.38,0.98-1.25-0.3-1.5-1.01C1420.77,553.84,1420.71,554.99,1420.92,555.76z"/>
	</g>
	<g>
		<path class="st35" d="M1299.94,556.45c0.22,0.89,1.21,1.19,2.18,0.65c2.79,0.82,5.11-1.67,7.88-1.25
			c-1.52,8.99-1.52,8.99,5.45,14.66c0.3,0.25,0.63,0.47,0.93,0.71c21.08,17,25.04,46.49,9.49,70.68
			c-13.54,21.06-44.38,28.88-67.16,17.04c-20.19-10.5-31.62-32.36-28.49-54.52c3.15-22.36,19.75-39.97,42.36-44.48
			c3.3-0.66,4.27-1.97,5.05-5.02c0.86-3.32-0.32-7.65,3.78-9.76c1,0.13,1.67-0.37,2.2-1.15c0,0,0.21-0.08,0.21-0.08
			c0.46-0.13,0.92-0.27,1.37-0.4c0,0,0.23-0.05,0.23-0.05c0.47-0.22,0.94-0.44,1.42-0.66c0,0-0.01,0.01-0.01,0.01
			c0.86,0.41,1.72,0.82,2.58,1.23c-0.11,2.08,1.56,1.26,2.54,1.56c-1.02,3.72,0.59,4.64,3.93,3.69c2.72-0.78,3.99-2.89,4.86-5.36
			c0.79,0.4,1.59,0.8,2.38,1.2c2.1,1.54,5.67,2.16,5.1,5.6c-0.5,3.03-3.55,3.84-6.19,4.64c-0.19,0.06-0.37,0.12-0.56,0.18
			C1300.78,555.59,1299.75,555.66,1299.94,556.45z M1326.5,618.79c3.27-15.11-0.11-28.62-10.64-40.17
			c-1.23-1.35-2.58-2.39-4.21-3.08c-1.46-0.63-2.69,0.1-3.74,1.01c-1.19,1.04-1.14,2.47-0.62,3.78c0.35,0.87,1,1.69,1.69,2.35
			c14.12,13.76,18.08,29.94,11.8,48.84C1325.38,628.32,1325.53,623.27,1326.5,618.79z M1301.42,569.14
			c0.68,0.66,1.92-0.49,2.08-1.45c0.4-2.38,2.28-5.02-0.14-7.09c-1.12-0.95-2.54,0.08-3.15,1.6
			C1299.37,564.72,1299.47,567.24,1301.42,569.14z"/>
		<path class="st35" d="M1277.02,535.82c-1.68,0.72-3.09,1.19-3.34-1.27c-0.39-3.83-2.74-5.2-6.26-5.61
			c-2.86-0.33-3.02-1.58-1.18-3.85c6.57-8.09,6.46-9.83-0.73-18.25c-0.73-0.86-1.22-1.65-0.57-2.47c0.35-0.44,1.56-0.69,2.08-0.43
			c9.44,4.69,13.52-3.38,19.03-7.96c0.67-0.55,0.72-1.9,1.94-1.82c1.29,0.09,1.23,1.28,1.51,2.17c2.4,7.74,4.69,9.12,12.07,7.29
			c1.05-0.26,2.17-1.42,3.19-0.32c1,1.07-0.06,2.16-0.45,3.21c-2.79,7.47-1.6,11.02,5.03,15.12c0.87,0.54,2.43,0.7,1.6,2.73
			c-2.49,0.19-5.15,0.24-7.75,0.66c-2.06,0.33-4.15,1.69-2.49,3.88c3.85,5.1,1.79,10.82,2.42,16.25c-0.79-0.4-1.59-0.8-2.38-1.2
			c-2.4-3.32-3.65,1.37-5.65,0.81c-0.4-0.23-0.81-0.46-1.21-0.7c7.05-5.17,7.05-5.17,5.8-11.19c-4.52,2.83-8.98,5.51-10.28,11.18
			c-0.86-0.41-1.72-0.82-2.58-1.23C1287.57,533.49,1285.67,532.11,1277.02,535.82z M1285.37,519.77c3.16-2.56,6.52-0.11,9.52,1.84
			c1.68,1.09,3.19,2.88,5.75,1.38c1.75-1.02,3.87-1.4,1.4-3.76c-3.48-3.32-0.8-10.06-3.24-11.3c-3.4-1.73-7.16-2.35-10.32-5.4
			c-2.57-2.49-5.56,0.94-8.34,1.84c-0.44,0.14-0.6,1.24-1.02,1.35c-11.42,2.86-3.35,13.74-7.87,19.69c-0.99,1.3,3.6,3.81,5.28,6.18
			c1.11,1.56,4.15-0.44,6.86-0.91C1279.09,525.88,1282.24,522.3,1285.37,519.77z M1296.62,532.06c1.93-1.76,1.53-3.9-0.31-5.61
			c-2.33-2.17-2.87,0.53-3.82,1.62c-2.21,2.52-4.2,5.2-3.2,9.52C1291.9,535.65,1294.44,534.05,1296.62,532.06z M1291.57,522.42
			c-0.78-1.11-2.88-2.53-5.34-0.33c-4.07,3.65-1.55,6.12,1.56,10.83C1287.58,527.71,1295.14,527.47,1291.57,522.42z"/>
		<path class="st35" d="M1278.39,484.13c1.24-6.63-0.36-12.81-1.24-19.07c-0.31-2.2-1.76-3.89-3.92-3.25
			c-2.22,0.66-2.21,2.94-1.47,4.92C1273.94,472.54,1276.18,478.33,1278.39,484.13z"/>
		<path class="st35" d="M1260.69,495.89c-3.9-5.74-8.77-8.57-12.86-12.19c-1.26-1.11-2.98-0.87-3.98,0.8
			c-1.18,1.97-0.17,3.45,1.53,4.28C1250.04,491.06,1254.79,493.17,1260.69,495.89z"/>
		<path class="st35" d="M1310.58,495.23c3.58-2.48,7.23-4.87,10.69-7.51c1.25-0.95,3.19-2.34,1.58-4.26
			c-1.6-1.92-3.33-1.28-4.82,0.57c-2.76,3.45-5.63,6.81-8.45,10.21C1309.92,494.58,1310.25,494.91,1310.58,495.23z"/>
		<path class="st35" d="M1318.44,510.36c3.56-0.18,7.12-0.29,10.67-0.58c1.09-0.09,2.5-0.45,2.16-2.1c-0.29-1.36-1.4-1.89-2.68-1.58
			c-3.48,0.85-6.93,1.81-10.39,2.72C1318.27,509.33,1318.35,509.84,1318.44,510.36z"/>
		<path class="st35" d="M1254.54,526.89c-2.88,0.91-5.77,1.8-8.64,2.73c-1.51,0.49-3.17,1.1-2.41,3.17
			c0.86,2.33,2.56,1.15,3.81,0.46c2.65-1.47,5.18-3.15,7.76-4.74C1254.89,527.97,1254.72,527.43,1254.54,526.89z"/>
		<path class="st35" d="M1251.65,506.24c-2.77-3.04-5.93-3.19-8.76-4.05c-0.96-0.29-2.06-0.17-2.36,0.94
			c-0.35,1.26,0.23,2.35,1.64,2.48C1245.09,505.89,1248.03,506.01,1251.65,506.24z"/>
		<path class="st35" d="M1281.41,545.16c1,0.13,1.67-0.37,2.2-1.15C1282.69,544.04,1281.86,544.25,1281.41,545.16z"/>
		<path class="st35" d="M1285.42,543.48c0.47-0.22,0.94-0.44,1.42-0.66C1286.36,543.04,1285.89,543.26,1285.42,543.48z"/>
		<path class="st35" d="M1283.81,543.93c0.46-0.13,0.92-0.27,1.37-0.4C1284.73,543.66,1284.27,543.8,1283.81,543.93z"/>
		<path class="st35" d="M1320.78,631.51c4.59-3.19,4.75-8.25,5.72-12.73c3.27-15.11-0.11-28.62-10.64-40.17
			c-1.23-1.35-2.58-2.39-4.21-3.08c-1.46-0.63-2.69,0.1-3.74,1.01c-1.19,1.04-1.14,2.47-0.62,3.78c0.35,0.87,1,1.69,1.69,2.35
			C1323.11,596.43,1327.06,612.61,1320.78,631.51z"/>
		<path class="st35" d="M1293.89,544.06c7.05-5.17,7.05-5.17,5.8-11.19c-4.52,2.83-8.98,5.51-10.28,11.18
			c-0.11,2.08,1.56,1.26,2.54,1.56c0,0-0.06,0.04-0.06,0.04c0.45-0.65,0.77-1.77,1.74-0.47l-0.15,0.04
			C1293.62,544.84,1293.75,544.45,1293.89,544.06z"/>
		<path class="st35" d="M1300.75,543.95c-2.4-3.32-3.65,1.37-5.65,0.81c-0.4,0.61-0.86,1.01-1.6,0.47c0,0,0.15-0.04,0.15-0.04
			c-0.46,0.59-0.75,1.85-1.74,0.47c0,0,0.06-0.04,0.06-0.04c-1.02,3.72,0.59,4.64,3.93,3.69
			C1298.6,548.53,1299.87,546.42,1300.75,543.95z"/>
		<path class="st35" d="M1300.21,562.2c-0.84,2.51-0.74,5.04,1.21,6.94c0.68,0.66,1.92-0.49,2.08-1.45c0.4-2.38,2.28-5.02-0.14-7.09
			C1302.24,559.65,1300.82,560.68,1300.21,562.2z"/>
		<path class="st35" d="M1301.48,555.57c-0.7,0.01-1.73,0.08-1.54,0.87c0.22,0.89,1.21,1.19,2.18,0.65
			C1301.9,556.59,1301.69,556.08,1301.48,555.57z"/>
		<path class="st35" d="M1283.38,530.67c-4.29-4.79-1.14-8.36,1.99-10.89c3.16-2.56,6.52-0.11,9.52,1.84
			c1.68,1.09,3.19,2.88,5.75,1.38c1.75-1.02,3.87-1.4,1.4-3.76c-3.48-3.32-0.8-10.06-3.24-11.3c-3.4-1.73-7.16-2.35-10.32-5.4
			c-2.57-2.49-5.56,0.94-8.34,1.84c-0.44,0.14-0.6,1.24-1.02,1.35c-11.42,2.86-3.35,13.74-7.87,19.69c-0.99,1.3,3.6,3.81,5.28,6.18
			C1277.62,533.14,1280.67,531.13,1283.38,530.67z"/>
		<path class="st35" d="M1289.29,537.58c2.61-1.93,5.15-3.53,7.33-5.52c1.93-1.76,1.53-3.9-0.31-5.61
			c-2.33-2.17-2.87,0.53-3.82,1.62C1290.27,530.59,1288.28,533.26,1289.29,537.58z"/>
		<path class="st35" d="M1287.8,532.92c-0.22-5.21,7.34-5.45,3.77-10.5c-0.78-1.11-2.88-2.53-5.34-0.33
			C1282.16,525.74,1284.69,528.21,1287.8,532.92z"/>
		<path class="st35" d="M1293.49,545.23c0.74,0.54,1.2,0.14,1.6-0.47c-0.4-0.23-0.81-0.46-1.21-0.7
			C1293.75,544.45,1293.62,544.84,1293.49,545.23z"/>
		<path class="st35" d="M1291.9,545.66c0.99,1.37,1.28,0.12,1.74-0.47C1292.66,543.9,1292.34,545.01,1291.9,545.66z"/>
	</g>
</g>
</svg>
