<?xml version="1.0" encoding="utf-8"?>
<!-- Generator: Adobe Illustrator 24.0.1, SVG Export Plug-In . SVG Version: 6.00 Build 0)  -->
<svg version="1.1" id="Layer_1" xmlns="http://www.w3.org/2000/svg" xmlns:xlink="http://www.w3.org/1999/xlink" x="0px" y="0px"
	 viewBox="0 0 900 900" style="enable-background:new 0 0 900 900;" xml:space="preserve">
<style type="text/css">
	.st0{fill:#464136;}
	.st1{fill:#342E24;}
	.st2{fill:#F2ECDA;}
	.st3{fill:#9D9683;}
	.st4{fill:#633714;}
	.st5{fill:#9A5A25;}
	.st6{opacity:0.5;fill:#B67E2B;}
	.st7{opacity:0.5;fill:#633714;}
	.st8{fill:#B67E2B;}
	.st9{fill:#FDED85;}
	.st10{fill:#5B5546;}
	.st11{fill:#807A67;}
	.st12{fill:#B9B4A1;}
	.st13{fill:#FFFFFF;}
	.st14{fill:#F78F1E;}
	.st15{fill:#FBED24;}
</style>
<path class="st0" d="M216.6,394.61c-20.87-25.91-58.79-30-84.71-9.13c-25.9,20.86-29.97,58.79-9.11,84.7
	c20.86,25.9,58.78,29.98,84.68,9.13C233.38,458.43,237.46,420.51,216.6,394.61z"/>
<path class="st1" d="M225.69,391.82c-20.87-25.91-58.79-30.01-84.71-9.13c-25.9,20.86-29.97,58.78-9.1,84.69
	c20.86,25.9,58.78,29.99,84.67,9.13C242.46,455.64,246.55,417.72,225.69,391.82z"/>
<path class="st2" d="M191.39,386.01c-6.7-5.47-14-10.15-20.73-15.58c-6.38-5.15-11-11.23-17.79-15.68
	c-5.48-3.6-12.41,0.64-11.71,7.15c0.02,0.17,0.05,0.33,0.06,0.5c-1.21,0.07-2.38,0.82-2.59,2.35c-3.39,24.26-10.66,47.82-7.66,72.55
	c1.24,10.23,8.15,19.73,16.15,26.64c9.41,8.13,24.72,9.86,36.28,7.26c21.47-4.83,35.58-24.6,32.26-48.69
	C213.54,407.13,202.92,395.44,191.39,386.01z"/>
<path class="st3" d="M195.24,385.17c-6.7-5.47-14-10.15-20.73-15.58c-6.38-5.15-11-11.23-17.79-15.68
	c-5.48-3.59-12.4,0.64-11.71,7.15c0.02,0.18,0.05,0.32,0.07,0.5c-1.21,0.08-2.38,0.82-2.6,2.35c-3.39,24.26-10.66,47.82-7.66,72.55
	c1.24,10.23,8.15,19.73,16.15,26.64c9.41,8.13,24.72,9.86,36.28,7.26c21.46-4.83,35.57-24.59,32.26-48.69
	C217.39,406.29,206.78,394.6,195.24,385.17z"/>
<path class="st4" d="M187.41,563.66l193.41,231.68c7.34,9.11,20.67,10.54,29.78,3.21l235-189.29c9.1-7.33,18.84-23.48,1.22-46.3
	L461.65,324.64L187.41,563.66z"/>
<path class="st5" d="M187.41,563.66l193.41,231.68c7.34,9.11,20.67,10.54,29.78,3.21l235-189.29c9.1-7.33,7.53-15.97,0.19-25.08
	L460.62,345.86L187.41,563.66z"/>
<path class="st5" d="M187.41,563.66l193.41,231.68c7.34,9.11,20.67,10.54,29.78,3.21l235-189.29c9.1-7.33,7.53-15.97,0.19-25.08
	L460.62,345.86L187.41,563.66z"/>
<path class="st6" d="M187.41,563.66l187.76,224.91l69.52-55.99c24.67-19.87,20.39-43.27,0.52-67.93c0,0-31.49-47.65-59.64-107.26
	c-41.85-88.65-15.88-139.48-15.88-139.48L187.41,563.66z"/>
<path class="st7" d="M418.96,379.07l166.78,214.96c15.32,20.9-1.21,41.75-10.32,49.09L383.28,797.89
	c7.59,6.74,19.15,7.24,27.31,0.66l235-189.29c9.1-7.33,7.53-15.97,0.19-25.08L460.62,345.86L418.96,379.07z"/>
<path class="st5" d="M474.98,339.32l117.6,103.83c11.75,10.39,29.39,9.81,40.48-0.92c34.53-27.08,69.41-59.88,102.59-97.51
	c32.84-37.24,72.02-86.88,94.45-124.18c10.07-12.36,8.69-30.56-3.36-41.2L709.14,75.51L474.98,339.32z"/>
<path class="st6" d="M474.98,339.32l117.6,103.83c1.02,0.9,2.09,1.68,3.19,2.42c13.39-11.95,25.65-23.69,35.92-34.71
	c14.96-11.4,16.86-35.06,4.01-53.65c0,0-36.43-40.88-47.09-55.73c-30.84-42.93-30.24-56.1-30.24-56.1L474.98,339.32z"/>
<path class="st7" d="M826.75,179.34L709.14,75.51l-23.3,26.25l89.68,87.12c12.06,10.64,13.44,28.84,3.36,41.2
	c-22.42,37.29-48.09,89.65-80.94,126.89c-30.94,35.09-63.35,65.97-95.58,91.93c10.43,3.7,22.4,1.36,30.71-6.67
	c34.53-27.08,69.41-59.88,102.59-97.51c32.84-37.24,72.02-86.88,94.45-124.18C840.18,208.18,838.8,189.98,826.75,179.34z"/>
<g>
	<path class="st1" d="M699.37,73.18c-8.14,1.82-18.83,7.89-23.87,13.56L484.76,301.21c-5.04,5.67-10.61,17.88-12.43,27.26l0,0
		c-1.82,9.38,1.95,11.09,8.42,3.81L702.39,83.07C708.87,75.78,707.52,71.35,699.37,73.18L699.37,73.18z"/>
	<path class="st4" d="M480.66,338.49C480.66,338.49,480.66,338.49,480.66,338.49c-3.7,2.98-7.33,1.18-8.79,0.29
		c-2.52-1.52-3.24-5.17-2.14-10.83c1.93-9.93,7.66-22.45,13.05-28.51L673.52,84.98c1.1-1.23,2.46-2.51,4.03-3.77
		c6.02-4.85,14.56-9.12,21.25-10.61c6.06-1.35,8.58,0.48,9.62,2.26c1.2,2.03,2.58,7.13-2.94,13.34L483.83,335.41
		C482.73,336.65,481.66,337.69,480.66,338.49z M474.64,334.02c0.32-0.13,0.84-0.42,1.59-1.02c0.78-0.63,1.63-1.46,2.54-2.48
		L700.41,81.3c2.88-3.24,3.44-5.14,3.43-5.72c-0.3-0.12-1.34-0.39-3.89,0.17c-5.97,1.34-15.44,3.24-20.89,7.63
		c-1.35,1.08-2.49,2.15-3.39,3.17L484.93,301.03c-4.69,5.27-8.29,19.12-10.01,27.95C474.38,331.76,474.48,333.32,474.64,334.02z"/>
	<path class="st8" d="M479.55,337.12C479.55,337.12,479.55,337.12,479.55,337.12c-3.7,2.98-6.22,2.55-7.68,1.67
		c-2.52-1.52-3.24-5.17-2.14-10.83c1.93-9.93,7.66-22.45,13.05-28.51L673.52,84.98c1.1-1.23,2.46-2.51,4.03-3.77
		c6.02-4.85,14.56-9.12,21.25-10.61c6.06-1.35,8.58,0.48,9.62,2.26c1.2,2.03,1.47,5.76-4.05,11.97L482.72,334.03
		C481.62,335.27,480.55,336.31,479.55,337.12z M474.64,334.02c0.32-0.13,0.84-0.42,1.59-1.02c0.78-0.63,1.63-1.46,2.54-2.48
		L700.41,81.3c2.88-3.24,3.44-5.14,3.43-5.72c-0.3-0.12-1.34-0.39-3.89,0.17c-5.97,1.34-15.44,3.24-20.89,7.63
		c-1.35,1.08-2.49,2.15-3.39,3.17L484.93,301.03c-4.69,5.27-8.29,19.12-10.01,27.95C474.38,331.76,474.48,333.32,474.64,334.02z"/>
	<path class="st9" d="M477.33,334.37c-1.6,1.29-3.88,2.6-5.66,1.53c-2.27-1.37-1.97-5.63-1.32-8.98c1.24-6.37,4.07-13.82,7.36-19.84
		c-3,7.51-4.94,16.67-5.63,20.18c-0.61,3.14-0.48,4.88-0.27,5.79l0.49,2.04l1.93-0.83c0.59-0.25,1.27-0.68,2-1.27
		c0.85-0.69,1.78-1.6,2.75-2.69L700.62,81.1c2.5-2.81,3.91-5.34,3.88-6.93l-0.03-1.16l-1.07-0.44c-0.74-0.3-2.2-0.52-4.95,0.09
		l-1.07,0.24c-3.61,0.8-8.35,1.85-12.74,3.52c4.48-2.55,9.32-4.56,13.43-5.48c2.78-0.62,6.36-0.88,7.73,1.43
		c1.27,2.16-0.1,5.68-3.85,9.9L480.3,331.48C479.26,332.65,478.26,333.62,477.33,334.37z"/>
</g>
<path class="st4" d="M195.8,565.52L195.8,565.52c-4.13,2.33-7.42-0.05-8.72-1.16c-2.24-1.91-2.34-5.63-0.32-11.03
	c3.54-9.48,11.26-20.88,17.58-25.97l251.01-202.18c1.29-1.04,3.95-0.69,5.71-1.68c6.74-3.79,3.86,14.58,4.6,16.51
	c0.85,2.2-0.01,8.56-6.48,13.78L199.44,563C198.15,564.04,196.92,564.89,195.8,565.52z M190.61,560.12c0.33-0.08,0.9-0.28,1.73-0.75
	c0.87-0.49,1.85-1.18,2.92-2.04l259.73-209.21c3.37-2.72,12.19-27.03,6.09-23.6c-1.51,0.84-2.81,1.71-3.87,2.57L206.19,529.27
	c-5.49,4.43-11.33,17.49-14.48,25.91C190.72,557.85,190.56,559.41,190.61,560.12z"/>
<path class="st8" d="M194.93,563.98L194.93,563.98c-4.14,2.33-6.56,1.49-7.85,0.38c-2.24-1.91-2.34-5.63-0.32-11.03
	c3.54-9.48,11.26-20.88,17.58-25.97l251.01-202.18c1.29-1.04,2.84-2.07,4.6-3.06c6.74-3.79,3.6,17.06,4.34,18.99
	c0.85,2.2,0.5,5.92-5.97,11.13L198.58,561.46C197.28,562.5,196.06,563.35,194.93,563.98z M190.61,560.12
	c0.33-0.08,0.9-0.28,1.73-0.75c0.87-0.49,1.85-1.18,2.92-2.04l259.73-209.21c3.37-2.72,8.07-23.71,1.97-20.28
	c-1.51,0.85-2.81,1.71-3.88,2.57L206.19,529.27c-5.49,4.43-11.33,17.49-14.48,25.91C190.72,557.85,190.56,559.41,190.61,560.12z"/>
<path class="st9" d="M194.99,559.82c-1.22,0.98-2.36,1.77-3.4,2.36c-1.79,1.01-4.26,1.92-5.83,0.57c-2.01-1.73-1.01-5.89,0.18-9.07
	c2.27-6.08,6.3-12.97,10.53-18.36c-4.2,6.91-7.63,15.63-8.88,18.98c-1.12,2.99-1.28,4.73-1.22,5.67l0.14,2.09l2.04-0.49
	c0.63-0.15,1.36-0.46,2.18-0.93c0.95-0.54,2.02-1.28,3.16-2.2l259.73-209.2c3.48-2.8,7.29-18.47,4.62-22.4
	c-0.62-0.92-1.74-1.63-3.23-1.33c0.99-0.72,2.1-1.42,3.33-2.11c0.44-0.25,0.62-0.23,0.63-0.24c1,0.6,1.37,4.99,1.05,13.04
	c-0.12,3.16-0.16,4.48,0.15,5.28c0.9,2.34-1.03,5.58-5.43,9.13l0,0L194.99,559.82z"/>
<path class="st3" d="M369.48,384.16L191.31,527.67c-5.49,4.43,3.56,19.09,0.41,27.52c-1,2.66-1.16,4.22-1.11,4.93
	c0.33-0.08,0.9-0.28,1.73-0.75c0.87-0.49,1.85-1.18,2.92-2.04l259.73-209.21c3.37-2.72,8.07-23.71,1.97-20.28
	C455.45,328.69,370.54,383.3,369.48,384.16z"/>
<path class="st9" d="M541.35,371.88c25.59,22.76,46.77,41.6,43.9,44.82c-2.86,3.22-23.18-14.84-48.77-37.59
	c-25.59-22.76-46.76-41.6-43.9-44.82C495.45,331.07,515.77,349.12,541.35,371.88z"/>
<path class="st9" d="M297.39,659.65c44.11,54.76,80.6,100.08,76.75,103.18c-3.84,3.1-38.85-40.35-82.95-95.1
	c-44.1-54.75-80.6-100.08-76.75-103.17C218.28,561.45,253.29,604.9,297.39,659.65z"/>
<g>
	<path class="st10" d="M459.36,336.59c-7.89,3.45-16.22,7.21-24.82,11.22c-13.11,6.11-25.4,12.12-36.24,17.68
		c-15.65,10.08-28.41,18.33-28.83,18.66l-11.37,9.16c10.59-1.68,42.5-14.14,79.72-31.37l17.16-13.82
		C456.57,346.85,458.45,341.52,459.36,336.59z"/>
	<path class="st11" d="M254.58,476.7l-27.44,22.1c-4.09,9.96-5.34,22.38-3.16,35.39l58.66-47.25
		C273.97,479.75,264.1,475.95,254.58,476.7z"/>
	<path class="st2" d="M192.6,526.63c1.62,5.67,3.45,11.71,5.47,17.96c0.91,2.82,1.82,5.59,2.73,8.28l9.2-7.41
		c-0.44-1.41-0.89-2.83-1.36-4.28c-2.47-7.68-4.98-14.95-7.4-21.52L192.6,526.63z"/>
	<path class="st12" d="M362.35,409.02c-7.85-0.98-15.4-1.33-22.34-1.13l-32.32,26.04c5.35,4.76,14.22,9.16,25.24,12.51l43.47-35.01
		C371.93,410.45,367.23,409.63,362.35,409.02z"/>
</g>
<path class="st2" d="M372.23,377.93c-5.69,0.31-13.57,3.19-17.6,6.44l-152.58,122.9c-4.03,3.25-9.15,10.84-11.44,16.95l0,0
	c-2.29,6.11,0.06,7.69,5.24,3.51l177.3-142.81C378.33,380.75,377.92,377.62,372.23,377.93L372.23,377.93z"/>
<g>
	<path class="st2" d="M473.11,321.69c-2.92-3.62-8.22-4.19-11.84-1.27s-4.19,8.21-1.27,11.84c2.92,3.62,8.22,4.2,11.84,1.28
		C475.45,330.61,476.03,325.31,473.11,321.69z"/>
	<path class="st3" d="M475.52,321.43c-2.92-3.62-8.22-4.19-11.84-1.27c-3.62,2.91-4.19,8.22-1.27,11.84
		c2.92,3.62,8.22,4.19,11.84,1.28C477.86,330.35,478.43,325.05,475.52,321.43z"/>
	<path class="st10" d="M473.08,323.38c-1.84-2.28-5.17-2.64-7.45-0.8c-2.28,1.83-2.63,5.17-0.8,7.45c1.83,2.28,5.17,2.64,7.45,0.8
		C474.56,329,474.92,325.66,473.08,323.38z"/>
</g>
<path class="st10" d="M385.7,328.9c-5.69,10.04-7.36,22.01-20.66,24.42c-12.73,2.3-21.19-8.11-30.05-14.9
	c-1.41-1.09-3.42,0.57-2.69,2.17c5.56,12.14,20.69,19.76,33.67,18.82c13.86-0.99,25.23-16.38,22.84-29.76
	C388.56,328.3,386.49,327.5,385.7,328.9z"/>
<path class="st10" d="M475.48,297.86c-4.18,4.24-5.28,10.57-5.03,16.34c0.19,4.33,0.45,13.49,5.88,14.51
	c0.62,0.12,1.21-0.25,1.59-0.71c2.5-2.99-0.02-8.12-0.45-11.54c-0.68-5.6,0.79-9.92,3.13-14.88
	C481.95,298.73,477.77,295.54,475.48,297.86z"/>
<path class="st2" d="M476.63,256.68c-9.9-9.33-21.92,6.33-29.94,12.3c-16,11.92-33.47,17.02-53.18,17.8
	c-28.85,1.16-26.41,13.91-24.84,31.6c1.2,13.45,12.22,20.83,24.81,16.64c8.31-2.77,14.94-11.03,21.16-16.77
	c9.24-8.54,12.71-6.88,25.17-7.75c7.88-0.55,20.07-0.39,27.92-0.92c2.53-0.17,18.18-1.46,19.5-16.66
	C488.22,281.66,485.06,264.64,476.63,256.68z"/>
<path class="st3" d="M480.21,258.32c-9.9-9.33-21.91,6.33-29.93,12.3c-16.01,11.92-33.48,17.02-53.18,17.81
	c-28.85,1.16-26.41,13.91-24.84,31.6c1.21,13.45,12.22,20.83,24.81,16.63c8.31-2.77,14.95-11.03,21.16-16.76
	c9.24-8.55,12.71-6.88,25.16-7.75c7.87-0.55,20.07-0.39,27.92-0.92c2.53-0.18,18.18-1.46,19.51-16.66
	C491.81,283.3,488.65,266.28,480.21,258.32z"/>
<path class="st12" d="M386.08,341.88c8.61-3.87,16.67-8.76,25.22-12.75c3.65-1.7,7.31-3.35,10.93-5.08
	c-1.56-3.08-3.34-6.03-5.16-8.76c-9.8-14.63-32.93-26.39-44.37-6.82c-7.11,12.16-2.99,25.74,3.6,37.51
	C379.59,344.67,382.86,343.32,386.08,341.88z"/>
<g>
	<path class="st2" d="M400.38,310.68c-3.83-4.75-10.78-5.5-15.53-1.68c-4.75,3.82-5.5,10.78-1.67,15.53
		c3.83,4.75,10.78,5.5,15.53,1.68C403.45,322.38,404.21,315.43,400.38,310.68z"/>
	<path class="st3" d="M403.54,310.33c-3.83-4.75-10.79-5.5-15.54-1.67c-4.75,3.82-5.5,10.78-1.67,15.53
		c3.83,4.75,10.78,5.5,15.52,1.67C406.61,322.03,407.37,315.08,403.54,310.33z"/>
	<path class="st10" d="M400.35,312.9c-2.41-2.99-6.78-3.46-9.78-1.05c-2.99,2.4-3.46,6.78-1.05,9.77c2.41,2.99,6.79,3.46,9.77,1.06
		C402.29,320.27,402.76,315.89,400.35,312.9z"/>
</g>
<g>
	<path class="st2" d="M178.45,429.93c-3.83-4.75-10.78-5.5-15.53-1.67c-4.75,3.82-5.5,10.77-1.67,15.53
		c3.82,4.75,10.78,5.5,15.53,1.67C181.53,441.63,182.28,434.67,178.45,429.93z"/>
	<path class="st12" d="M181.6,429.58c-3.83-4.75-10.78-5.5-15.53-1.67c-4.75,3.83-5.5,10.78-1.68,15.53
		c3.83,4.75,10.78,5.5,15.53,1.67C184.68,441.28,185.43,434.33,181.6,429.58z"/>
	<path class="st10" d="M178.42,432.14c-2.41-2.99-6.79-3.46-9.78-1.05c-2.99,2.41-3.45,6.78-1.05,9.77
		c2.41,2.99,6.78,3.46,9.77,1.06C180.35,439.51,180.83,435.14,178.42,432.14z"/>
</g>
<path class="st3" d="M136.96,362.9l94.73,113.47c3.59,4.46,10.12,5.16,14.58,1.57l115.09-92.71c4.47-3.6,3.69-7.83,0.1-12.29
	l-90.69-116.72L136.96,362.9z"/>
<path class="st12" d="M306.86,428.98l28.91-23.13C279.4,340.2,234.91,296.55,228.26,301.9
	C221.62,307.25,254.76,359.97,306.86,428.98z"/>
<path class="st11" d="M263.85,463.62l18.62-14.84c-55.61-66.26-98.08-111.54-102.36-108.1
	C175.84,344.13,210.99,395.22,263.85,463.62z"/>
<path class="st12" d="M160.41,344.35l-23.41,18.58c56.04,66.09,99.52,110.71,104.89,106.39C247.24,465,212.97,413.1,160.41,344.35z"
	/>
<path class="st2" d="M147.42,354.81l-10.42,8.12c55.09,66.85,96.01,113.53,98.39,111.62C237.76,472.64,200.93,422.79,147.42,354.81z
	"/>
<path class="st10" d="M235.05,284.7c56.59,65.26,101.82,108.11,109.46,101.96c7.63-6.15-24.54-59.38-76.17-128.49L235.05,284.7z"/>
<path class="st2" d="M267.78,254.71c-4.07,0.22-9.72,2.29-12.61,4.62l-109.31,88.05c-2.89,2.33-6.56,7.76-8.2,12.14l0,0
	c-1.64,4.38,0.05,5.51,3.76,2.52l127.02-102.31C272.15,256.73,271.85,254.49,267.78,254.71L267.78,254.71z"/>
<path class="st1" d="M140.31,360.66c-0.62,0.5-1.1,0.81-1.44,0.99c0.07-0.35,0.2-0.85,0.45-1.52c1.51-4.05,5.02-9.27,7.65-11.39
	l109.31-88.05c2.6-2.09,7.91-4.03,11.6-4.23c0.59-0.03,0.98,0,1.23,0.05c-0.24,0.38-0.75,1.01-1.77,1.83L140.31,360.66z"/>
<path class="st1" d="M232.65,401.55c-4.75,3.82-11.7,3.08-15.53-1.68c-3.83-4.75-3.07-11.71,1.67-15.53
	c4.75-3.83,11.71-3.08,15.53,1.67C238.15,390.77,237.39,397.73,232.65,401.55z M289.29,341.74c-3.83-4.75-10.78-5.5-15.53-1.67
	c-4.75,3.83-5.5,10.78-1.67,15.53c3.83,4.75,10.78,5.5,15.53,1.68C292.37,353.45,293.12,346.5,289.29,341.74z M181.37,376.55
	c-3.83-4.75-10.78-5.5-15.53-1.67c-4.75,3.83-5.5,10.78-1.67,15.53c3.82,4.75,10.78,5.5,15.52,1.67
	C184.45,388.26,185.2,381.3,181.37,376.55z M236.35,332.27c-3.83-4.75-10.79-5.5-15.54-1.67c-4.74,3.82-5.5,10.78-1.67,15.53
	c3.82,4.75,10.78,5.49,15.52,1.67C239.42,343.98,240.17,337.02,236.35,332.27z M291.31,288c-3.83-4.75-10.78-5.5-15.53-1.68
	c-4.75,3.83-5.5,10.78-1.67,15.53c3.82,4.75,10.78,5.5,15.53,1.67C294.39,299.7,295.14,292.75,291.31,288z M233.4,441.15
	c-3.83-4.75-10.78-5.5-15.53-1.68c-4.75,3.83-5.5,10.78-1.67,15.53c3.82,4.75,10.78,5.5,15.52,1.67
	C236.48,452.85,237.22,445.89,233.4,441.15z M288.38,396.87c-3.83-4.75-10.79-5.5-15.54-1.67c-4.74,3.82-5.5,10.78-1.67,15.53
	c3.82,4.75,10.78,5.49,15.52,1.67C291.45,408.57,292.2,401.61,288.38,396.87z M343.34,352.59c-3.83-4.75-10.78-5.51-15.53-1.68
	c-4.75,3.83-5.5,10.78-1.67,15.54c3.82,4.75,10.78,5.5,15.53,1.67C346.42,364.29,347.16,357.34,343.34,352.59z"/>
<g>
	<path class="st13" d="M274.07,339.85c-0.06,2.04,0.54,4.11,1.92,5.82c3.06,3.8,8.62,4.39,12.42,1.34c1.01-0.82,1.78-1.81,2.33-2.9
		c-0.37-0.82-0.84-1.62-1.44-2.36C285.55,337.1,278.81,336.29,274.07,339.85z"/>
	<path class="st13" d="M278.01,291.92c3.06,3.8,8.63,4.4,12.43,1.34c1.01-0.81,1.78-1.81,2.33-2.9c-0.38-0.83-0.86-1.62-1.45-2.36
		c-3.75-4.65-10.48-5.46-15.22-1.9C276.03,288.14,276.63,290.21,278.01,291.92z"/>
	<path class="st13" d="M328.12,350.69c-0.07,2.04,0.53,4.11,1.91,5.82c3.06,3.8,8.63,4.4,12.43,1.34c1.01-0.81,1.78-1.81,2.33-2.9
		c-0.38-0.82-0.86-1.62-1.45-2.35C339.6,347.94,332.87,347.14,328.12,350.69z"/>
	<path class="st13" d="M273.15,394.97c-0.07,2.04,0.53,4.11,1.91,5.82c3.06,3.8,8.63,4.4,12.43,1.34c1.01-0.81,1.77-1.81,2.33-2.9
		c-0.38-0.82-0.85-1.63-1.44-2.36C284.63,392.22,277.9,391.41,273.15,394.97z"/>
	<path class="st13" d="M218.18,439.24c-0.07,2.04,0.53,4.11,1.91,5.82c3.06,3.8,8.63,4.4,12.42,1.34c1.01-0.81,1.77-1.81,2.33-2.9
		c-0.38-0.83-0.85-1.62-1.44-2.36C229.66,436.5,222.92,435.69,218.18,439.24z"/>
	<path class="st13" d="M168.07,380.47c3.06,3.8,8.63,4.4,12.43,1.34c1.01-0.81,1.77-1.81,2.33-2.9c-0.38-0.83-0.85-1.62-1.44-2.36
		c-3.75-4.65-10.48-5.46-15.22-1.9C166.09,376.69,166.69,378.76,168.07,380.47z"/>
	<path class="st13" d="M223.04,336.2c3.06,3.8,8.63,4.4,12.43,1.34c1.01-0.81,1.77-1.81,2.33-2.9c-0.38-0.83-0.85-1.63-1.44-2.36
		c-3.75-4.65-10.48-5.45-15.22-1.9C221.06,332.41,221.66,334.48,223.04,336.2z"/>
	<path class="st13" d="M219.1,384.12c-0.06,2.04,0.54,4.11,1.91,5.82c3.06,3.8,8.62,4.39,12.42,1.34c1.01-0.81,1.78-1.81,2.33-2.9
		c-0.37-0.82-0.85-1.62-1.44-2.36C230.58,381.37,223.84,380.57,219.1,384.12z"/>
</g>
<path class="st14" d="M111.29,160.12c37.02,40.76,20.74,40.52,9.76,104.2c-4.43,25.7,40.02,78.42,73.88,14.41
	C244.34,185.27,90.03,136.71,111.29,160.12z"/>
<path class="st15" d="M101.92,159.77c37.02,40.76,20.74,40.52,9.76,104.2c-4.43,25.7,40.02,78.42,73.88,14.41
	C234.98,184.92,80.67,136.36,101.92,159.77z"/>
</svg>
