<?xml version="1.0" encoding="utf-8"?>
<!-- Generator: Adobe Illustrator 24.0.1, SVG Export Plug-In . SVG Version: 6.00 Build 0)  -->
<svg version="1.1" id="Layer_1" xmlns="http://www.w3.org/2000/svg" xmlns:xlink="http://www.w3.org/1999/xlink" x="0px" y="0px"
	 viewBox="0 0 900 900" style="enable-background:new 0 0 900 900;" xml:space="preserve">
<style type="text/css">
	.st0{fill:#464136;}
	.st1{fill:#342E24;}
	.st2{fill:#F2ECDA;}
	.st3{fill:#9D9683;}
	.st4{fill:#633714;}
	.st5{fill:#9A5A25;}
	.st6{opacity:0.5;fill:#B67E2B;}
	.st7{opacity:0.5;fill:#633714;}
	.st8{fill:#B67E2B;}
	.st9{fill:#FDED85;}
	.st10{fill:#5B5546;}
	.st11{fill:#807A67;}
	.st12{fill:#B9B4A1;}
	.st13{fill:#FFFFFF;}
	.st14{fill:#F78F1E;}
	.st15{fill:#FBED24;}
</style>
<path class="st0" d="M224.66,347.46c0-33.27-26.97-60.25-60.25-60.25c-33.25,0-60.22,26.98-60.22,60.25
	c0,33.26,26.97,60.22,60.22,60.22C197.69,407.68,224.66,380.71,224.66,347.46z"/>
<path class="st1" d="M233.48,350.98c0-33.27-26.96-60.25-60.25-60.25c-33.25,0-60.22,26.98-60.22,60.25
	c0,33.26,26.96,60.22,60.22,60.22C206.52,411.21,233.48,384.24,233.48,350.98z"/>
<path class="st2" d="M210.42,324.95c-1.79-8.46-4.53-16.68-6.37-25.14c-1.74-8.01-1.52-15.64-4.01-23.37
	c-2.01-6.24-10.06-7.28-13.61-1.78c-0.1,0.15-0.17,0.28-0.26,0.43c-0.99-0.7-2.37-0.85-3.5,0.2c-17.86,16.76-38.3,30.55-51.48,51.7
	c-5.45,8.75-6.03,20.48-4.13,30.87c2.23,12.23,13.07,23.19,23.7,28.41c19.75,9.7,43.14,3.16,55.66-17.68
	C214.42,355.28,213.49,339.52,210.42,324.95z"/>
<path class="st3" d="M213.95,326.71c-1.79-8.46-4.54-16.68-6.37-25.14c-1.74-8.01-1.52-15.64-4.01-23.37
	c-2.01-6.23-10.06-7.28-13.61-1.78c-0.1,0.15-0.17,0.28-0.26,0.43c-0.99-0.7-2.37-0.85-3.5,0.2c-17.86,16.76-38.3,30.55-51.48,51.69
	c-5.45,8.75-6.03,20.48-4.14,30.88c2.23,12.23,13.07,23.19,23.7,28.41c19.75,9.7,43.13,3.16,55.66-17.68
	C217.95,357.05,217.02,341.29,213.95,326.71z"/>
<path class="st4" d="M95.88,460.79l5.29,301.76c0,11.7,9.48,21.18,21.18,21.18h301.76c11.69,0,29.4-6.47,29.99-35.29l5.29-301.75
	L95.88,460.79z"/>
<path class="st5" d="M95.88,460.79l5.29,301.76c0,11.7,9.48,21.18,21.18,21.18h301.76c11.69,0,15.88-7.72,15.88-19.41l5.3-301.76
	L95.88,460.79z"/>
<path class="st5" d="M95.88,460.79l5.29,301.76c0,11.7,9.48,21.18,21.18,21.18h301.76c11.69,0,15.88-7.72,15.88-19.41l5.3-301.76
	L95.88,460.79z"/>
<path class="st6" d="M95.88,460.79l5.14,292.94h89.26c31.68,0,43.02-20.91,43.02-52.58c0,0,5.37-56.86,20.84-120.94
	c23.01-95.29,75.13-118.59,75.13-118.59L95.88,460.79z"/>
<path class="st7" d="M392.01,462.29l-4.96,272.03c-1.18,25.88-27.13,31.76-38.83,31.76H101.49c1.68,10.01,10.37,17.65,20.86,17.65
	h301.76c11.69,0,15.88-7.72,15.88-19.41l5.3-301.76L392.01,462.29z"/>
<path class="st5" d="M460.57,466.48l26.46,154.63c2.64,15.46,16.74,26.08,32.1,24.68c43.88,0.57,91.61-3.09,141.07-11.59
	c48.94-8.4,110.59-22.48,151.45-37.46c15.6-3.3,25.94-18.34,23.23-34.19l-26.46-154.63L460.57,466.48z"/>
<path class="st6" d="M460.57,466.48l26.46,154.63c0.23,1.34,0.57,2.62,0.96,3.89c17.92-0.91,34.84-2.36,49.75-4.5
	c18.8,0.5,35.13-16.73,36.78-39.27c0,0-2.73-54.69-1.71-72.95c2.91-52.77,11.64-62.66,11.64-62.66L460.57,466.48z"/>
<path class="st7" d="M834.87,562.55l-26.46-154.63l-34.62,5.82l15.19,124.1c2.71,15.85-7.63,30.89-23.23,34.19
	c-40.85,14.98-93.69,39.65-142.63,48.05c-46.11,7.92-90.72,11.64-132.11,11.64c5.8,9.42,16.59,15.11,28.1,14.06
	c43.88,0.57,91.61-3.09,141.07-11.59c48.94-8.4,110.59-22.48,151.45-37.46C827.24,593.44,837.58,578.4,834.87,562.55z"/>
<g>
	<path class="st1" d="M802.26,399.97c-7.48-3.69-19.62-5.66-27.09-4.41l-283.08,47.37c-7.49,1.25-19.48,7.27-26.78,13.43l0,0
		c-7.3,6.16-5.44,9.86,4.17,8.25l328.94-55.04C808.03,407.95,809.76,403.65,802.26,399.97L802.26,399.97z"/>
	<path class="st4" d="M465.5,469.39C465.5,469.39,465.5,469.39,465.5,469.39c-4.75,0-6.44-3.68-7.03-5.29
		c-1.01-2.77,0.72-6.06,5.13-9.77c7.73-6.52,20.05-12.68,28.05-14.02l283.08-47.37c1.63-0.27,3.49-0.41,5.51-0.41
		c7.73,0,17.06,2.03,23.21,5.06c5.57,2.74,6.38,5.75,6.07,7.79c-0.34,2.33-2.47,7.17-10.66,8.55l-328.94,55.04
		C468.28,469.25,466.79,469.39,465.5,469.39z M463.63,462.14c0.33,0.1,0.91,0.2,1.88,0.2c1,0,2.19-0.11,3.54-0.34l328.94-55.05
		c4.27-0.72,5.9-1.84,6.26-2.3c-0.16-0.28-0.79-1.15-3.13-2.3c-5.49-2.7-14.06-7.16-21.06-7.16c-1.73,0-3.29,0.12-4.63,0.34
		l-283.08,47.37c-6.96,1.16-18.45,9.69-25.32,15.48C464.84,460.21,463.94,461.49,463.63,462.14z"/>
	<path class="st8" d="M465.5,467.63C465.5,467.63,465.5,467.63,465.5,467.63c-4.75,0-6.44-1.91-7.03-3.52
		c-1.01-2.77,0.72-6.06,5.13-9.77c7.73-6.52,20.05-12.68,28.05-14.02l283.08-47.37c1.63-0.27,3.49-0.41,5.51-0.41
		c7.73,0,17.06,2.03,23.21,5.06c5.57,2.74,6.38,5.75,6.07,7.79c-0.34,2.33-2.47,5.41-10.66,6.78l-328.94,55.04
		C468.28,467.49,466.79,467.63,465.5,467.63z M463.63,462.14c0.33,0.1,0.91,0.2,1.88,0.2c1,0,2.19-0.11,3.54-0.34l328.94-55.05
		c4.27-0.72,5.9-1.84,6.26-2.3c-0.16-0.28-0.79-1.15-3.13-2.3c-5.49-2.7-14.06-7.16-21.06-7.16c-1.73,0-3.29,0.12-4.63,0.34
		l-283.08,47.37c-6.96,1.16-18.45,9.69-25.32,15.48C464.84,460.21,463.94,461.49,463.63,462.14z"/>
	<path class="st9" d="M465.5,464.09c-2.06,0-4.66-0.41-5.37-2.36c-0.91-2.49,2-5.63,4.6-7.82c4.96-4.18,11.84-8.21,18.18-10.84
		c-7.05,3.96-14.31,9.88-17.04,12.19c-2.44,2.06-3.44,3.5-3.84,4.34l-0.9,1.9l2.02,0.57c0.62,0.17,1.41,0.26,2.35,0.26
		c1.1,0,2.39-0.13,3.83-0.37l328.94-55.05c3.71-0.62,6.4-1.7,7.37-2.96l0.7-0.92l-0.56-1.01c-0.39-0.69-1.38-1.79-3.91-3.03
		l-0.99-0.49c-3.32-1.65-7.67-3.8-12.13-5.25c5.09,0.82,10.12,2.3,13.9,4.15c2.55,1.26,5.51,3.31,5.12,5.96
		c-0.37,2.48-3.64,4.36-9.21,5.29l-328.94,55.05C468.08,463.96,466.69,464.09,465.5,464.09z"/>
</g>
<path class="st4" d="M101.25,467.51L101.25,467.51c-4.68-0.78-5.75-4.69-6.06-6.37c-0.54-2.89,1.71-5.85,6.67-8.79
	c8.7-5.16,21.87-9.19,29.98-9.19h322.31c1.65,0,3.51,1.93,5.5,2.27c7.63,1.27-6.14,13.78-6.77,15.75
	c-0.72,2.25-5.38,6.66-13.69,6.67l-333.51,0C104,467.83,102.52,467.72,101.25,467.51z M100.59,460.04c0.31,0.14,0.87,0.35,1.81,0.5
	c0.99,0.17,2.18,0.25,3.55,0.25h333.51c4.33,0,26.45-13.41,19.55-14.56c-1.7-0.29-3.26-0.43-4.63-0.43H132.08
	c-7.05,0-19.8,6.51-27.53,11.1C102.11,458.35,101,459.46,100.59,460.04z"/>
<path class="st8" d="M101.54,465.77L101.54,465.77c-4.68-0.78-6.04-2.95-6.35-4.63c-0.54-2.89,1.71-5.85,6.67-8.79
	c8.7-5.16,21.87-9.19,29.98-9.19h322.31c1.65,0,3.51,0.17,5.5,0.5c7.63,1.28-7.9,15.54-8.54,17.51c-0.72,2.25-3.33,4.92-11.64,4.92
	H105.96C104.3,466.09,102.81,465.98,101.54,465.77z M100.59,460.04c0.31,0.14,0.87,0.35,1.81,0.5c0.99,0.17,2.18,0.25,3.55,0.25
	h333.51c4.33,0,21.15-13.41,14.26-14.56c-1.71-0.29-3.27-0.43-4.64-0.43H132.08c-7.05,0-19.8,6.51-27.53,11.1
	C102.11,458.35,101,459.46,100.59,460.04z"/>
<path class="st9" d="M104.19,462.56c-1.56,0-2.95-0.1-4.13-0.29c-2.03-0.34-4.52-1.17-4.9-3.21c-0.48-2.61,2.9-5.22,5.83-6.95
	c5.58-3.31,13.04-6.15,19.72-7.69c-7.6,2.75-15.75,7.39-18.82,9.21c-2.75,1.63-3.96,2.88-4.5,3.65l-1.2,1.71l1.89,0.9
	c0.58,0.27,1.35,0.49,2.28,0.65c1.08,0.18,2.37,0.27,3.84,0.27H437.7c4.47,0,17.26-9.81,17.65-14.55c0.09-1.11-0.34-2.36-1.68-3.06
	c1.22,0.06,2.53,0.21,3.91,0.45c0.49,0.08,0.63,0.21,0.64,0.21c0.4,1.1-2.06,4.74-7.36,10.81c-2.08,2.39-2.93,3.39-3.2,4.21
	c-0.77,2.39-4.3,3.7-9.96,3.7l0,0L104.19,462.56z"/>
<path class="st3" d="M350.27,435.22H121.5c-7.05,0-9.21,17.1-16.94,21.69c-2.45,1.45-3.55,2.56-3.96,3.14
	c0.31,0.14,0.87,0.35,1.81,0.5c0.99,0.17,2.18,0.25,3.55,0.25h333.51c4.33,0,21.15-13.41,14.26-14.56
	C452.02,445.94,351.64,435.22,350.27,435.22z"/>
<path class="st9" d="M491.83,533.47c5.66,33.78,10.33,61.73,6.07,62.45c-4.25,0.71-8.74-26.1-14.4-59.87
	c-5.66-33.78-10.32-61.73-6.07-62.45C481.68,472.89,486.18,499.7,491.83,533.47z"/>
<path class="st9" d="M121.32,604.54c0,70.31-0.01,128.5-4.95,128.5c-4.94,0-4.95-55.79-4.95-126.1c0-70.31,0.01-128.5,4.95-128.49
	C121.31,478.44,121.32,534.24,121.32,604.54z"/>
<g>
	<path class="st10" d="M450.11,454.56c-8.3-2.26-17.15-4.56-26.37-6.84c-14.04-3.47-27.39-6.49-39.31-8.96
		c-18.51-1.97-33.63-3.55-34.16-3.55h-14.6c9.3,5.33,41.97,15.65,81.76,25.58h22.03C441.51,460.79,446.32,457.82,450.11,454.56z"/>
	<path class="st11" d="M202.74,435.22H167.5c-9.43,5.19-18.2,14.08-24.66,25.58h75.32C215.93,449.75,210.62,440.6,202.74,435.22z"/>
	<path class="st2" d="M123.15,435.22c-2.29,5.43-4.65,11.28-7.01,17.42c-1.06,2.77-2.08,5.49-3.07,8.16h11.81
		c0.54-1.38,1.08-2.77,1.62-4.18c2.89-7.54,5.5-14.77,7.74-21.4H123.15z"/>
	<path class="st12" d="M329.13,450.11c-5.5-5.69-11.16-10.69-16.68-14.89h-41.5c1.18,7.06,5.33,16.06,11.81,25.58h55.82
		C335.69,457.23,332.54,453.64,329.13,450.11z"/>
</g>
<path class="st2" d="M356.33,432.09c-4.63-3.32-12.57-6.02-17.75-6.02H142.66c-5.18,0-13.93,2.7-19.54,6.02l0,0
	c-5.62,3.33-4.77,6.02,1.88,6.02h227.66C359.3,438.11,360.95,435.41,356.33,432.09L356.33,432.09z"/>
<g>
	<path class="st2" d="M470.17,451.57c0-4.65-3.77-8.42-8.42-8.42s-8.42,3.77-8.42,8.42c0,4.65,3.77,8.42,8.42,8.42
		S470.17,456.22,470.17,451.57z"/>
	<path class="st3" d="M472.21,452.88c0-4.65-3.77-8.42-8.42-8.42c-4.65,0-8.42,3.77-8.42,8.42c0,4.65,3.77,8.42,8.42,8.42
		C468.43,461.29,472.21,457.52,472.21,452.88z"/>
	<path class="st10" d="M469.08,452.88c0-2.93-2.37-5.3-5.3-5.3c-2.92,0-5.29,2.37-5.29,5.3c0,2.92,2.37,5.3,5.29,5.3
		C466.71,458.17,469.08,455.8,469.08,452.88z"/>
</g>
<path class="st10" d="M397.57,402.36c-10.73,4.25-19.54,12.53-31.41,6.06c-11.35-6.19-11.42-19.61-14.06-30.46
	c-0.41-1.73-3.02-1.7-3.46,0c-3.29,12.94,3.72,28.37,14.41,35.78c11.42,7.92,29.92,3.07,36.46-8.84
	C400.18,403.68,399.06,401.76,397.57,402.36z"/>
<path class="st10" d="M486.97,434.5c-5.91,0.68-10.75,4.92-14.17,9.57c-2.57,3.5-8.11,10.78-4.52,14.99
	c0.41,0.48,1.1,0.56,1.68,0.44c3.82-0.76,5.07-6.34,6.89-9.26c2.98-4.79,6.84-7.23,11.77-9.63
	C491.45,439.23,490.2,434.13,486.97,434.5z"/>
<path class="st2" d="M513.69,403.15c-1.86-13.48-21.04-8.81-31.04-9.2c-19.94-0.76-36.74-7.74-52.58-19.49
	c-23.2-17.19-29.3-5.73-39.16,9.03c-7.5,11.23-3.55,23.89,8.88,28.52c8.21,3.05,18.56,0.78,27,0.21
	c12.56-0.85,14.21,2.61,24.46,9.75c6.48,4.51,15.88,12.29,22.32,16.8c2.08,1.45,15.07,10.26,25.64-0.74
	C507.04,429.88,515.26,414.63,513.69,403.15z"/>
<path class="st3" d="M515.45,406.67c-1.85-13.48-21.04-8.81-31.03-9.19c-19.95-0.76-36.75-7.75-52.59-19.49
	c-23.2-17.19-29.29-5.73-39.16,9.03c-7.5,11.23-3.55,23.89,8.89,28.51c8.21,3.06,18.56,0.79,26.99,0.22
	c12.56-0.86,14.21,2.61,24.46,9.75c6.47,4.51,15.87,12.29,22.32,16.8c2.08,1.45,15.07,10.26,25.64-0.74
	C508.81,433.4,517.03,418.16,515.45,406.67z"/>
<path class="st12" d="M389.73,412.7c9.13,2.39,18.48,3.63,27.64,5.89c3.91,0.97,7.8,1.97,11.7,2.9c0.72-3.38,1.19-6.79,1.47-10.06
	c1.55-17.54-9.09-41.21-30.28-33.14c-13.16,5.01-18.48,18.17-20.73,31.47C382.92,410.8,386.31,411.81,389.73,412.7z"/>
<g>
	<path class="st2" d="M420.43,397.37c0-6.1-4.95-11.05-11.04-11.05c-6.09,0-11.04,4.95-11.04,11.05c0,6.1,4.95,11.04,11.04,11.04
		C415.49,408.42,420.43,403.48,420.43,397.37z"/>
	<path class="st3" d="M423.11,399.08c0-6.1-4.95-11.05-11.05-11.05c-6.09,0-11.04,4.95-11.04,11.05c0,6.1,4.95,11.04,11.04,11.04
		C418.16,410.12,423.11,405.18,423.11,399.08z"/>
	<path class="st10" d="M419.02,399.08c0-3.84-3.11-6.95-6.96-6.95c-3.83,0-6.95,3.11-6.95,6.95c0,3.84,3.12,6.95,6.95,6.95
		C415.91,406.04,419.02,402.92,419.02,399.08z"/>
</g>
<g>
	<path class="st2" d="M172.8,351.03c0-6.1-4.95-11.04-11.05-11.04c-6.09,0-11.04,4.94-11.04,11.04c0,6.09,4.95,11.04,11.04,11.04
		C167.85,362.07,172.8,357.12,172.8,351.03z"/>
	<path class="st12" d="M175.47,352.74c0-6.1-4.95-11.04-11.05-11.04c-6.1,0-11.04,4.94-11.04,11.04c0,6.1,4.95,11.04,11.04,11.04
		C170.52,363.78,175.47,358.84,175.47,352.74z"/>
	<path class="st10" d="M171.38,352.74c0-3.84-3.11-6.95-6.96-6.95c-3.84,0-6.95,3.12-6.95,6.95c0,3.84,3.11,6.95,6.95,6.95
		C168.27,359.69,171.38,356.58,171.38,352.74z"/>
</g>
<path class="st3" d="M182.53,272.8l2.59,147.79c0,5.73,4.64,10.37,10.37,10.37h147.79c5.73,0,7.79-3.78,7.79-9.51l2.59-147.79
	L182.53,272.8z"/>
<path class="st12" d="M273.39,430.84l37.03,0.12c-2.71-86.49-9.98-148.39-18.52-148.39C283.37,282.57,276.1,344.42,273.39,430.84z"
	/>
<path class="st11" d="M218.16,430.84l23.81,0.12c-1.75-86.49-6.42-148.39-11.9-148.39C224.58,282.57,219.91,344.42,218.16,430.84z"
	/>
<path class="st12" d="M212.42,273.06l-29.89-0.21c2.18,86.62,8.05,148.65,14.95,148.65C204.37,421.5,210.24,359.57,212.42,273.06z"
	/>
<path class="st2" d="M195.74,273.06l-13.21-0.21c0.97,86.62,3.56,148.65,6.61,148.65C192.19,421.5,194.78,359.57,195.74,273.06z"/>
<path class="st10" d="M307.98,273.43c3.13,86.32,11.49,148.06,21.29,148.06c9.8,0,18.14-61.64,21.28-147.85L307.98,273.43z"/>
<path class="st2" d="M352.27,270.61c-3.3-2.38-9-4.31-12.71-4.31H199.2c-3.71,0-9.98,1.93-14,4.31l0,0
	c-4.02,2.38-3.42,4.32,1.35,4.32h163.1C354.41,274.92,355.59,272.99,352.27,270.61L352.27,270.61z"/>
<path class="st1" d="M186.54,273.16c-0.8,0-1.36-0.06-1.74-0.13c0.27-0.23,0.69-0.54,1.3-0.9c3.72-2.21,9.72-4.07,13.1-4.07h140.36
	c3.34,0,8.68,1.82,11.68,3.98c0.48,0.34,0.76,0.61,0.93,0.81c-0.42,0.15-1.22,0.31-2.53,0.31H186.54z"/>
<path class="st1" d="M232.8,362.93c-6.1,0-11.04-4.95-11.04-11.05c0-6.1,4.95-11.04,11.04-11.04c6.1,0,11.05,4.95,11.05,11.04
	C243.85,357.98,238.9,362.93,232.8,362.93z M314.43,351.88c0-6.1-4.95-11.04-11.05-11.04c-6.1,0-11.04,4.95-11.04,11.04
	c0,6.1,4.94,11.05,11.04,11.05C309.49,362.93,314.43,357.98,314.43,351.88z M208.55,311.3c0-6.1-4.95-11.05-11.05-11.05
	c-6.1,0-11.04,4.94-11.04,11.05c0,6.1,4.94,11.04,11.04,11.04C203.61,322.34,208.55,317.39,208.55,311.3z M279.14,311.3
	c0-6.1-4.95-11.05-11.05-11.05c-6.09,0-11.04,4.94-11.04,11.05c0,6.1,4.95,11.04,11.04,11.04
	C274.19,322.34,279.14,317.39,279.14,311.3z M349.72,311.3c0-6.1-4.94-11.05-11.04-11.05c-6.1,0-11.05,4.94-11.05,11.05
	c0,6.1,4.95,11.04,11.05,11.04C344.78,322.34,349.72,317.39,349.72,311.3z M208.55,394.24c0-6.1-4.95-11.05-11.05-11.05
	c-6.1,0-11.04,4.95-11.04,11.05c0,6.09,4.94,11.04,11.04,11.04C203.61,405.28,208.55,400.33,208.55,394.24z M279.14,394.24
	c0-6.1-4.95-11.05-11.05-11.05c-6.09,0-11.04,4.95-11.04,11.05c0,6.09,4.95,11.04,11.04,11.04
	C274.19,405.28,279.14,400.33,279.14,394.24z M349.72,394.24c0-6.1-4.94-11.05-11.04-11.05c-6.1,0-11.05,4.95-11.05,11.05
	c0,6.09,4.95,11.04,11.05,11.04C344.78,405.28,349.72,400.33,349.72,394.24z"/>
<g>
	<path class="st13" d="M303.77,340.86c-1.33,1.55-2.16,3.54-2.16,5.73c0,4.88,3.96,8.83,8.83,8.83c1.3,0,2.52-0.29,3.63-0.8
		c0.23-0.87,0.36-1.79,0.36-2.74C314.43,345.92,309.69,341.06,303.77,340.86z"/>
	<path class="st13" d="M336.9,306c0,4.88,3.96,8.84,8.84,8.84c1.29,0,2.52-0.3,3.63-0.8c0.22-0.88,0.35-1.8,0.35-2.74
		c0-5.97-4.73-10.82-10.66-11.03C337.73,301.81,336.9,303.8,336.9,306z"/>
	<path class="st13" d="M339.06,383.21c-1.33,1.55-2.17,3.53-2.17,5.73c0,4.88,3.96,8.84,8.84,8.84c1.29,0,2.52-0.3,3.63-0.8
		c0.22-0.88,0.35-1.8,0.35-2.74C349.72,388.27,344.98,383.42,339.06,383.21z"/>
	<path class="st13" d="M268.48,383.21c-1.33,1.55-2.17,3.53-2.17,5.73c0,4.88,3.96,8.84,8.84,8.84c1.29,0,2.52-0.3,3.63-0.8
		c0.22-0.88,0.36-1.8,0.36-2.74C279.14,388.27,274.4,383.42,268.48,383.21z"/>
	<path class="st13" d="M197.89,383.21c-1.33,1.55-2.16,3.53-2.16,5.73c0,4.88,3.96,8.84,8.84,8.84c1.3,0,2.52-0.3,3.63-0.8
		c0.23-0.88,0.36-1.8,0.36-2.74C208.55,388.27,203.81,383.42,197.89,383.21z"/>
	<path class="st13" d="M195.73,306c0,4.88,3.96,8.84,8.84,8.84c1.3,0,2.52-0.3,3.63-0.8c0.23-0.88,0.36-1.8,0.36-2.74
		c0-5.97-4.74-10.82-10.66-11.03C196.56,301.81,195.73,303.8,195.73,306z"/>
	<path class="st13" d="M266.31,306c0,4.88,3.96,8.84,8.84,8.84c1.29,0,2.52-0.3,3.63-0.8c0.22-0.88,0.36-1.8,0.36-2.74
		c0-5.97-4.74-10.82-10.66-11.03C267.15,301.81,266.31,303.8,266.31,306z"/>
	<path class="st13" d="M233.18,340.86c-1.33,1.55-2.16,3.54-2.16,5.73c0,4.88,3.96,8.83,8.83,8.83c1.3,0,2.52-0.29,3.63-0.8
		c0.22-0.87,0.36-1.79,0.36-2.74C243.85,345.92,239.11,341.06,233.18,340.86z"/>
</g>
<path class="st14" d="M289.74,98.77c3.26,54.96-9.27,44.56-57.76,87.27c-19.58,17.24-18.02,86.18,48.5,57.56
	C377.58,201.83,287.87,67.21,289.74,98.77z"/>
<path class="st15" d="M282.66,92.63c3.26,54.96-9.27,44.56-57.76,87.27c-19.58,17.24-18.02,86.18,48.5,57.56
	C370.5,195.68,280.79,61.06,282.66,92.63z"/>
</svg>
